<mxfile host="app.diagrams.net" agent="Mozilla/5.0 (Windows NT 10.0; Win64; x64) AppleWebKit/537.36 (KHTML, like Gecko) Chrome/138.0.0.0 Safari/537.36" version="28.0.7">
  <diagram id="C5RBs43oDa-KdzZeNtuy" name="Page-1">
    <mxGraphModel dx="1825" dy="1184" grid="1" gridSize="10" guides="1" tooltips="1" connect="1" arrows="1" fold="1" page="0" pageScale="1" pageWidth="827" pageHeight="1169" math="0" shadow="0">
      <root>
        <mxCell id="WIyWlLk6GJQsqaUBKTNV-0" />
        <mxCell id="lni71YWlgwytNNIKN3gq-3" value="Storm Drains" parent="WIyWlLk6GJQsqaUBKTNV-0" />
        <mxCell id="lni71YWlgwytNNIKN3gq-348" value="" style="shape=flexArrow;endArrow=none;html=1;rounded=0;endFill=0;dashed=1;fillColor=#fff2cc;gradientColor=none;strokeColor=#d6b656;" parent="lni71YWlgwytNNIKN3gq-3" edge="1">
          <mxGeometry width="50" height="50" relative="1" as="geometry">
            <mxPoint x="-80" y="390" as="sourcePoint" />
            <mxPoint x="720" y="390" as="targetPoint" />
          </mxGeometry>
        </mxCell>
        <mxCell id="lni71YWlgwytNNIKN3gq-349" value="" style="shape=flexArrow;endArrow=none;html=1;rounded=0;endFill=0;dashed=1;fillColor=#fff2cc;gradientColor=none;strokeColor=#d6b656;" parent="lni71YWlgwytNNIKN3gq-3" edge="1">
          <mxGeometry width="50" height="50" relative="1" as="geometry">
            <mxPoint x="680" y="-10" as="sourcePoint" />
            <mxPoint x="720" y="-10" as="targetPoint" />
          </mxGeometry>
        </mxCell>
        <mxCell id="lni71YWlgwytNNIKN3gq-350" value="" style="shape=flexArrow;endArrow=none;html=1;rounded=0;endFill=0;dashed=1;fillColor=#fff2cc;gradientColor=none;strokeColor=#d6b656;" parent="lni71YWlgwytNNIKN3gq-3" edge="1">
          <mxGeometry width="50" height="50" relative="1" as="geometry">
            <mxPoint x="109" y="520" as="sourcePoint" />
            <mxPoint x="109" y="-120" as="targetPoint" />
          </mxGeometry>
        </mxCell>
        <mxCell id="lni71YWlgwytNNIKN3gq-351" value="" style="shape=flexArrow;endArrow=none;html=1;rounded=0;endFill=0;dashed=1;fillColor=#fff2cc;gradientColor=none;strokeColor=#d6b656;" parent="lni71YWlgwytNNIKN3gq-3" edge="1">
          <mxGeometry width="50" height="50" relative="1" as="geometry">
            <mxPoint x="349" y="520" as="sourcePoint" />
            <mxPoint x="349" y="-120" as="targetPoint" />
          </mxGeometry>
        </mxCell>
        <mxCell id="lni71YWlgwytNNIKN3gq-352" value="" style="shape=flexArrow;endArrow=none;html=1;rounded=0;endFill=0;dashed=1;fillColor=#fff2cc;gradientColor=none;strokeColor=#d6b656;" parent="lni71YWlgwytNNIKN3gq-3" edge="1">
          <mxGeometry width="50" height="50" relative="1" as="geometry">
            <mxPoint x="669" y="520" as="sourcePoint" />
            <mxPoint x="669" y="-120" as="targetPoint" />
          </mxGeometry>
        </mxCell>
        <mxCell id="lni71YWlgwytNNIKN3gq-387" value="" style="whiteSpace=wrap;html=1;aspect=fixed;fillColor=#fff2cc;strokeColor=#d6b656;gradientColor=none;" parent="lni71YWlgwytNNIKN3gq-3" vertex="1">
          <mxGeometry x="99" y="380" width="20" height="20" as="geometry" />
        </mxCell>
        <mxCell id="lni71YWlgwytNNIKN3gq-404" value="" style="whiteSpace=wrap;html=1;aspect=fixed;fillColor=#fff2cc;strokeColor=#d6b656;gradientColor=none;" parent="lni71YWlgwytNNIKN3gq-3" vertex="1">
          <mxGeometry x="339" y="380" width="20" height="20" as="geometry" />
        </mxCell>
        <mxCell id="lni71YWlgwytNNIKN3gq-405" value="" style="whiteSpace=wrap;html=1;aspect=fixed;fillColor=#fff2cc;strokeColor=#d6b656;gradientColor=none;" parent="lni71YWlgwytNNIKN3gq-3" vertex="1">
          <mxGeometry x="659" y="379" width="20" height="20" as="geometry" />
        </mxCell>
        <mxCell id="lni71YWlgwytNNIKN3gq-406" value="" style="whiteSpace=wrap;html=1;aspect=fixed;fillColor=#fff2cc;strokeColor=#d6b656;gradientColor=none;" parent="lni71YWlgwytNNIKN3gq-3" vertex="1">
          <mxGeometry x="100" y="-20" width="20" height="20" as="geometry" />
        </mxCell>
        <mxCell id="lni71YWlgwytNNIKN3gq-407" value="" style="whiteSpace=wrap;html=1;aspect=fixed;fillColor=#fff2cc;strokeColor=#d6b656;gradientColor=none;" parent="lni71YWlgwytNNIKN3gq-3" vertex="1">
          <mxGeometry x="339" y="-21" width="20" height="20" as="geometry" />
        </mxCell>
        <mxCell id="lni71YWlgwytNNIKN3gq-408" value="" style="whiteSpace=wrap;html=1;aspect=fixed;fillColor=#fff2cc;strokeColor=#d6b656;gradientColor=none;" parent="lni71YWlgwytNNIKN3gq-3" vertex="1">
          <mxGeometry x="659" y="-21" width="20" height="20" as="geometry" />
        </mxCell>
        <mxCell id="lni71YWlgwytNNIKN3gq-414" value="" style="shape=flexArrow;endArrow=none;html=1;rounded=0;endFill=0;dashed=1;fillColor=#fff2cc;gradientColor=none;strokeColor=#d6b656;" parent="lni71YWlgwytNNIKN3gq-3" edge="1">
          <mxGeometry width="50" height="50" relative="1" as="geometry">
            <mxPoint x="-80" y="-10" as="sourcePoint" />
            <mxPoint x="-80" y="-80" as="targetPoint" />
          </mxGeometry>
        </mxCell>
        <mxCell id="lni71YWlgwytNNIKN3gq-415" value="" style="whiteSpace=wrap;html=1;aspect=fixed;fillColor=#fff2cc;strokeColor=#d6b656;gradientColor=none;" parent="lni71YWlgwytNNIKN3gq-3" vertex="1">
          <mxGeometry x="-90" y="-20" width="20" height="20" as="geometry" />
        </mxCell>
        <mxCell id="lni71YWlgwytNNIKN3gq-416" value="" style="shape=flexArrow;endArrow=none;html=1;rounded=0;endFill=0;dashed=1;fillColor=#fff2cc;gradientColor=none;strokeColor=#d6b656;" parent="lni71YWlgwytNNIKN3gq-3" edge="1">
          <mxGeometry width="50" height="50" relative="1" as="geometry">
            <mxPoint x="670" y="530" as="sourcePoint" />
            <mxPoint x="630" y="530" as="targetPoint" />
          </mxGeometry>
        </mxCell>
        <mxCell id="lni71YWlgwytNNIKN3gq-417" value="" style="whiteSpace=wrap;html=1;aspect=fixed;fillColor=#fff2cc;strokeColor=#d6b656;gradientColor=none;" parent="lni71YWlgwytNNIKN3gq-3" vertex="1">
          <mxGeometry x="659" y="520" width="20" height="20" as="geometry" />
        </mxCell>
        <mxCell id="_ffZxEVP9vw5_LnrRt1j-5" value="" style="shape=flexArrow;endArrow=none;html=1;rounded=0;endFill=0;dashed=1;fillColor=#fff2cc;gradientColor=none;strokeColor=#d6b656;" edge="1" parent="lni71YWlgwytNNIKN3gq-3">
          <mxGeometry width="50" height="50" relative="1" as="geometry">
            <mxPoint x="360" y="-10" as="sourcePoint" />
            <mxPoint x="660" y="-10" as="targetPoint" />
          </mxGeometry>
        </mxCell>
        <mxCell id="_ffZxEVP9vw5_LnrRt1j-7" value="" style="shape=flexArrow;endArrow=none;html=1;rounded=0;endFill=0;dashed=1;fillColor=#fff2cc;gradientColor=none;strokeColor=#d6b656;" edge="1" parent="lni71YWlgwytNNIKN3gq-3">
          <mxGeometry width="50" height="50" relative="1" as="geometry">
            <mxPoint x="120" y="-10" as="sourcePoint" />
            <mxPoint x="340" y="-10" as="targetPoint" />
          </mxGeometry>
        </mxCell>
        <mxCell id="_ffZxEVP9vw5_LnrRt1j-9" value="" style="shape=flexArrow;endArrow=none;html=1;rounded=0;endFill=0;dashed=1;fillColor=#fff2cc;gradientColor=none;strokeColor=#d6b656;" edge="1" parent="lni71YWlgwytNNIKN3gq-3">
          <mxGeometry width="50" height="50" relative="1" as="geometry">
            <mxPoint x="-80" y="-10" as="sourcePoint" />
            <mxPoint x="100" y="-10" as="targetPoint" />
          </mxGeometry>
        </mxCell>
        <mxCell id="lni71YWlgwytNNIKN3gq-1" value="Subway" parent="WIyWlLk6GJQsqaUBKTNV-0" />
        <mxCell id="lni71YWlgwytNNIKN3gq-342" value="" style="shape=flexArrow;endArrow=none;html=1;rounded=0;endFill=0;fillColor=#d5e8d4;gradientColor=none;fillStyle=solid;strokeColor=#82b366;" parent="lni71YWlgwytNNIKN3gq-1" edge="1">
          <mxGeometry width="50" height="50" relative="1" as="geometry">
            <mxPoint x="80" y="560" as="sourcePoint" />
            <mxPoint x="-80" y="-120" as="targetPoint" />
            <Array as="points">
              <mxPoint x="80" y="480" />
              <mxPoint x="40" y="440" />
              <mxPoint x="40" y="200" />
              <mxPoint x="-40" y="120" />
              <mxPoint x="-40" y="40" />
            </Array>
          </mxGeometry>
        </mxCell>
        <mxCell id="lni71YWlgwytNNIKN3gq-343" value="" style="shape=flexArrow;endArrow=none;html=1;rounded=0;endFill=0;fillColor=#dae8fc;gradientColor=none;fillStyle=solid;strokeColor=#6c8ebf;" parent="lni71YWlgwytNNIKN3gq-1" edge="1">
          <mxGeometry width="50" height="50" relative="1" as="geometry">
            <mxPoint x="650" y="580" as="sourcePoint" />
            <mxPoint x="540" y="-130" as="targetPoint" />
            <Array as="points">
              <mxPoint x="600" y="440" />
              <mxPoint x="560" y="400" />
              <mxPoint x="590" y="320" />
              <mxPoint x="600" y="280" />
              <mxPoint x="600" y="200" />
              <mxPoint x="600" y="120" />
              <mxPoint x="560" y="40" />
              <mxPoint x="560" />
              <mxPoint x="560" y="-80" />
            </Array>
          </mxGeometry>
        </mxCell>
        <mxCell id="lni71YWlgwytNNIKN3gq-344" value="" style="shape=flexArrow;endArrow=none;html=1;rounded=0;endFill=0;fillColor=#fad7ac;fillStyle=solid;strokeColor=#b46504;" parent="lni71YWlgwytNNIKN3gq-1" edge="1">
          <mxGeometry width="50" height="50" relative="1" as="geometry">
            <mxPoint x="660" y="570" as="sourcePoint" />
            <mxPoint x="-110" y="-110" as="targetPoint" />
            <Array as="points">
              <mxPoint x="480" y="400" />
              <mxPoint x="480" y="240" />
              <mxPoint x="320" y="80" />
              <mxPoint x="80" y="80" />
            </Array>
          </mxGeometry>
        </mxCell>
        <mxCell id="lni71YWlgwytNNIKN3gq-354" value="37th&lt;div&gt;St&lt;/div&gt;" style="ellipse;whiteSpace=wrap;html=1;aspect=fixed;fillColor=#b0e3e6;strokeColor=#0e8088;" parent="lni71YWlgwytNNIKN3gq-1" vertex="1">
          <mxGeometry x="610" y="517" width="40" height="40" as="geometry" />
        </mxCell>
        <mxCell id="lni71YWlgwytNNIKN3gq-356" value="20th&lt;div&gt;Ave&lt;/div&gt;" style="ellipse;whiteSpace=wrap;html=1;aspect=fixed;fillColor=#b0e3e6;strokeColor=#0e8088;" parent="lni71YWlgwytNNIKN3gq-1" vertex="1">
          <mxGeometry x="-93" y="-81" width="40" height="40" as="geometry" />
        </mxCell>
        <mxCell id="lni71YWlgwytNNIKN3gq-2" value="Streets" parent="WIyWlLk6GJQsqaUBKTNV-0" />
        <mxCell id="lni71YWlgwytNNIKN3gq-36" value="" style="endArrow=none;html=1;rounded=0;strokeWidth=2;" parent="lni71YWlgwytNNIKN3gq-2" edge="1">
          <mxGeometry width="50" height="50" relative="1" as="geometry">
            <mxPoint x="640" y="520" as="sourcePoint" />
            <mxPoint x="640" y="-80" as="targetPoint" />
          </mxGeometry>
        </mxCell>
        <mxCell id="lni71YWlgwytNNIKN3gq-11" value="" style="endArrow=none;html=1;rounded=0;strokeWidth=2;" parent="lni71YWlgwytNNIKN3gq-2" edge="1">
          <mxGeometry width="50" height="50" relative="1" as="geometry">
            <mxPoint x="-80" y="-40" as="sourcePoint" />
            <mxPoint x="680" y="-40" as="targetPoint" />
          </mxGeometry>
        </mxCell>
        <mxCell id="lni71YWlgwytNNIKN3gq-12" value="20th&lt;div&gt;Ave&lt;/div&gt;" style="text;html=1;align=left;verticalAlign=middle;whiteSpace=wrap;rounded=0;container=0;" parent="lni71YWlgwytNNIKN3gq-2" vertex="1">
          <mxGeometry x="-119" y="-55" width="60" height="30" as="geometry" />
        </mxCell>
        <mxCell id="lni71YWlgwytNNIKN3gq-60" value="" style="endArrow=none;html=1;rounded=0;strokeWidth=2;" parent="lni71YWlgwytNNIKN3gq-2" edge="1">
          <mxGeometry width="50" height="50" relative="1" as="geometry">
            <mxPoint x="-40" y="360" as="sourcePoint" />
            <mxPoint x="680" y="360" as="targetPoint" />
          </mxGeometry>
        </mxCell>
        <mxCell id="lni71YWlgwytNNIKN3gq-61" value="30th Ave" style="text;html=1;align=center;verticalAlign=middle;whiteSpace=wrap;rounded=0;container=0;" parent="lni71YWlgwytNNIKN3gq-2" vertex="1">
          <mxGeometry x="-119" y="345" width="60" height="30" as="geometry" />
        </mxCell>
        <mxCell id="lni71YWlgwytNNIKN3gq-45" value="" style="endArrow=none;html=1;rounded=0;strokeWidth=2;" parent="lni71YWlgwytNNIKN3gq-2" edge="1">
          <mxGeometry width="50" height="50" relative="1" as="geometry">
            <mxPoint x="480" y="480" as="sourcePoint" />
            <mxPoint x="480" y="-80" as="targetPoint" />
          </mxGeometry>
        </mxCell>
        <mxCell id="lni71YWlgwytNNIKN3gq-46" value="33rd&lt;div&gt;Street&lt;/div&gt;" style="text;html=1;align=center;verticalAlign=middle;whiteSpace=wrap;rounded=0;container=0;" parent="lni71YWlgwytNNIKN3gq-2" vertex="1">
          <mxGeometry x="450" y="-128" width="60" height="30" as="geometry" />
        </mxCell>
        <mxCell id="lni71YWlgwytNNIKN3gq-14" value="" style="endArrow=none;html=1;rounded=0;strokeWidth=2;" parent="lni71YWlgwytNNIKN3gq-2" edge="1">
          <mxGeometry width="50" height="50" relative="1" as="geometry">
            <mxPoint x="-40" y="40" as="sourcePoint" />
            <mxPoint x="680" y="40" as="targetPoint" />
          </mxGeometry>
        </mxCell>
        <mxCell id="lni71YWlgwytNNIKN3gq-15" value="22nd Ave" style="text;html=1;align=center;verticalAlign=middle;whiteSpace=wrap;rounded=0;container=0;" parent="lni71YWlgwytNNIKN3gq-2" vertex="1">
          <mxGeometry x="-119" y="25" width="54.41860465116279" height="30" as="geometry" />
        </mxCell>
        <mxCell id="lni71YWlgwytNNIKN3gq-37" value="37th&lt;div&gt;Street&lt;/div&gt;" style="text;html=1;align=center;verticalAlign=middle;whiteSpace=wrap;rounded=0;container=0;" parent="lni71YWlgwytNNIKN3gq-2" vertex="1">
          <mxGeometry x="610" y="-128" width="60" height="30" as="geometry" />
        </mxCell>
        <mxCell id="lni71YWlgwytNNIKN3gq-22" value="" style="endArrow=none;html=1;rounded=0;strokeWidth=2;" parent="lni71YWlgwytNNIKN3gq-2" edge="1">
          <mxGeometry width="50" height="50" relative="1" as="geometry">
            <mxPoint x="560" y="480" as="sourcePoint" />
            <mxPoint x="560" y="-80" as="targetPoint" />
          </mxGeometry>
        </mxCell>
        <mxCell id="lni71YWlgwytNNIKN3gq-23" value="35th&lt;div&gt;Street&lt;/div&gt;" style="text;html=1;align=center;verticalAlign=middle;whiteSpace=wrap;rounded=0;container=0;" parent="lni71YWlgwytNNIKN3gq-2" vertex="1">
          <mxGeometry x="530" y="-128" width="60" height="30" as="geometry" />
        </mxCell>
        <mxCell id="lni71YWlgwytNNIKN3gq-57" value="" style="endArrow=none;html=1;rounded=0;strokeWidth=2;" parent="lni71YWlgwytNNIKN3gq-2" edge="1">
          <mxGeometry width="50" height="50" relative="1" as="geometry">
            <mxPoint x="-40" y="280" as="sourcePoint" />
            <mxPoint x="680" y="280" as="targetPoint" />
          </mxGeometry>
        </mxCell>
        <mxCell id="lni71YWlgwytNNIKN3gq-58" value="28th Ave" style="text;html=1;align=center;verticalAlign=middle;whiteSpace=wrap;rounded=0;container=0;" parent="lni71YWlgwytNNIKN3gq-2" vertex="1">
          <mxGeometry x="-119" y="265" width="54.41860465116279" height="30" as="geometry" />
        </mxCell>
        <mxCell id="lni71YWlgwytNNIKN3gq-17" value="" style="endArrow=none;html=1;rounded=0;strokeWidth=2;" parent="lni71YWlgwytNNIKN3gq-2" edge="1">
          <mxGeometry width="50" height="50" relative="1" as="geometry">
            <mxPoint x="-40" y="120" as="sourcePoint" />
            <mxPoint x="680" y="120" as="targetPoint" />
          </mxGeometry>
        </mxCell>
        <mxCell id="lni71YWlgwytNNIKN3gq-18" value="24th Ave" style="text;html=1;align=center;verticalAlign=middle;whiteSpace=wrap;rounded=0;container=0;" parent="lni71YWlgwytNNIKN3gq-2" vertex="1">
          <mxGeometry x="-119" y="105" width="54.41860465116279" height="30" as="geometry" />
        </mxCell>
        <mxCell id="lni71YWlgwytNNIKN3gq-20" value="" style="endArrow=none;html=1;rounded=0;strokeWidth=2;" parent="lni71YWlgwytNNIKN3gq-2" edge="1">
          <mxGeometry width="50" height="50" relative="1" as="geometry">
            <mxPoint x="-40" y="200" as="sourcePoint" />
            <mxPoint x="680" y="200" as="targetPoint" />
          </mxGeometry>
        </mxCell>
        <mxCell id="lni71YWlgwytNNIKN3gq-21" value="26th Ave" style="text;html=1;align=center;verticalAlign=middle;whiteSpace=wrap;rounded=0;container=0;" parent="lni71YWlgwytNNIKN3gq-2" vertex="1">
          <mxGeometry x="-119" y="185" width="54.41860465116279" height="30" as="geometry" />
        </mxCell>
        <mxCell id="lni71YWlgwytNNIKN3gq-27" value="" style="endArrow=none;html=1;rounded=0;strokeWidth=2;" parent="lni71YWlgwytNNIKN3gq-2" edge="1">
          <mxGeometry width="50" height="50" relative="1" as="geometry">
            <mxPoint y="480" as="sourcePoint" />
            <mxPoint y="-80" as="targetPoint" />
          </mxGeometry>
        </mxCell>
        <mxCell id="lni71YWlgwytNNIKN3gq-30" value="" style="endArrow=none;html=1;rounded=0;strokeWidth=2;" parent="lni71YWlgwytNNIKN3gq-2" edge="1">
          <mxGeometry width="50" height="50" relative="1" as="geometry">
            <mxPoint x="320" y="480" as="sourcePoint" />
            <mxPoint x="320" y="-80" as="targetPoint" />
          </mxGeometry>
        </mxCell>
        <mxCell id="lni71YWlgwytNNIKN3gq-31" value="29th&lt;div&gt;Street&lt;/div&gt;" style="text;html=1;align=center;verticalAlign=middle;whiteSpace=wrap;rounded=0;container=0;" parent="lni71YWlgwytNNIKN3gq-2" vertex="1">
          <mxGeometry x="290" y="-128" width="60" height="30" as="geometry" />
        </mxCell>
        <mxCell id="lni71YWlgwytNNIKN3gq-33" value="" style="endArrow=none;html=1;rounded=0;strokeWidth=2;" parent="lni71YWlgwytNNIKN3gq-2" edge="1">
          <mxGeometry width="50" height="50" relative="1" as="geometry">
            <mxPoint x="240" y="480" as="sourcePoint" />
            <mxPoint x="240" y="-80" as="targetPoint" />
          </mxGeometry>
        </mxCell>
        <mxCell id="lni71YWlgwytNNIKN3gq-34" value="27th&lt;div&gt;Street&lt;/div&gt;" style="text;html=1;align=center;verticalAlign=middle;whiteSpace=wrap;rounded=0;container=0;" parent="lni71YWlgwytNNIKN3gq-2" vertex="1">
          <mxGeometry x="210" y="-128" width="60" height="30" as="geometry" />
        </mxCell>
        <mxCell id="lni71YWlgwytNNIKN3gq-39" value="" style="endArrow=none;html=1;rounded=0;strokeWidth=2;" parent="lni71YWlgwytNNIKN3gq-2" edge="1">
          <mxGeometry width="50" height="50" relative="1" as="geometry">
            <mxPoint x="400" y="480" as="sourcePoint" />
            <mxPoint x="400" y="-80" as="targetPoint" />
          </mxGeometry>
        </mxCell>
        <mxCell id="lni71YWlgwytNNIKN3gq-40" value="31st&lt;div&gt;Street&lt;/div&gt;" style="text;html=1;align=center;verticalAlign=middle;whiteSpace=wrap;rounded=0;container=0;" parent="lni71YWlgwytNNIKN3gq-2" vertex="1">
          <mxGeometry x="370" y="-128" width="60" height="30" as="geometry" />
        </mxCell>
        <mxCell id="lni71YWlgwytNNIKN3gq-48" value="" style="endArrow=none;html=1;rounded=0;strokeWidth=2;" parent="lni71YWlgwytNNIKN3gq-2" edge="1">
          <mxGeometry width="50" height="50" relative="1" as="geometry">
            <mxPoint x="80" y="480" as="sourcePoint" />
            <mxPoint x="80" y="-80" as="targetPoint" />
          </mxGeometry>
        </mxCell>
        <mxCell id="lni71YWlgwytNNIKN3gq-49" value="23rd&lt;div&gt;Street&lt;/div&gt;" style="text;html=1;align=center;verticalAlign=middle;whiteSpace=wrap;rounded=0;container=0;" parent="lni71YWlgwytNNIKN3gq-2" vertex="1">
          <mxGeometry x="50" y="-128" width="60" height="30" as="geometry" />
        </mxCell>
        <mxCell id="lni71YWlgwytNNIKN3gq-53" value="" style="endArrow=none;html=1;rounded=0;strokeWidth=2;" parent="lni71YWlgwytNNIKN3gq-2" edge="1">
          <mxGeometry width="50" height="50" relative="1" as="geometry">
            <mxPoint x="160" y="480" as="sourcePoint" />
            <mxPoint x="160" y="-80" as="targetPoint" />
          </mxGeometry>
        </mxCell>
        <mxCell id="lni71YWlgwytNNIKN3gq-54" value="25th&lt;div&gt;Street&lt;/div&gt;" style="text;html=1;align=center;verticalAlign=middle;whiteSpace=wrap;rounded=0;container=0;" parent="lni71YWlgwytNNIKN3gq-2" vertex="1">
          <mxGeometry x="130" y="-128" width="60" height="30" as="geometry" />
        </mxCell>
        <mxCell id="lni71YWlgwytNNIKN3gq-63" value="" style="endArrow=none;html=1;rounded=0;strokeWidth=2;" parent="lni71YWlgwytNNIKN3gq-2" edge="1">
          <mxGeometry width="50" height="50" relative="1" as="geometry">
            <mxPoint x="-40" y="440" as="sourcePoint" />
            <mxPoint x="680" y="440" as="targetPoint" />
          </mxGeometry>
        </mxCell>
        <mxCell id="lni71YWlgwytNNIKN3gq-64" value="32nd Ave" style="text;html=1;align=center;verticalAlign=middle;whiteSpace=wrap;rounded=0;container=0;" parent="lni71YWlgwytNNIKN3gq-2" vertex="1">
          <mxGeometry x="-119" y="425" width="54.41860465116279" height="30" as="geometry" />
        </mxCell>
        <mxCell id="lni71YWlgwytNNIKN3gq-357" value="21st&lt;div&gt;Street&lt;/div&gt;" style="text;html=1;align=center;verticalAlign=middle;whiteSpace=wrap;rounded=0;container=0;" parent="lni71YWlgwytNNIKN3gq-2" vertex="1">
          <mxGeometry x="-30" y="-130" width="60" height="30" as="geometry" />
        </mxCell>
        <mxCell id="lni71YWlgwytNNIKN3gq-419" value="" style="whiteSpace=wrap;html=1;aspect=fixed;fillColor=#f8cecc;strokeColor=#b85450;" parent="lni71YWlgwytNNIKN3gq-2" vertex="1">
          <mxGeometry x="190" y="310" width="20" height="20" as="geometry" />
        </mxCell>
        <mxCell id="lni71YWlgwytNNIKN3gq-421" value="" style="endArrow=none;html=1;rounded=0;" parent="lni71YWlgwytNNIKN3gq-2" edge="1">
          <mxGeometry width="50" height="50" relative="1" as="geometry">
            <mxPoint x="200" y="310" as="sourcePoint" />
            <mxPoint x="200" y="280" as="targetPoint" />
          </mxGeometry>
        </mxCell>
        <mxCell id="lni71YWlgwytNNIKN3gq-368" value="Key" parent="WIyWlLk6GJQsqaUBKTNV-0" />
        <mxCell id="lni71YWlgwytNNIKN3gq-384" value="" style="group" parent="lni71YWlgwytNNIKN3gq-368" connectable="0" vertex="1">
          <mxGeometry x="100" y="539" width="480" height="80" as="geometry" />
        </mxCell>
        <mxCell id="lni71YWlgwytNNIKN3gq-383" value="" style="rounded=1;whiteSpace=wrap;html=1;" parent="lni71YWlgwytNNIKN3gq-384" vertex="1">
          <mxGeometry width="480" height="80" as="geometry" />
        </mxCell>
        <mxCell id="lni71YWlgwytNNIKN3gq-373" value="" style="ellipse;whiteSpace=wrap;html=1;aspect=fixed;fillColor=#b0e3e6;strokeColor=#0e8088;" parent="lni71YWlgwytNNIKN3gq-384" vertex="1">
          <mxGeometry x="10" y="20" width="40" height="40" as="geometry" />
        </mxCell>
        <mxCell id="lni71YWlgwytNNIKN3gq-374" value="Subway&lt;div&gt;Junction&lt;/div&gt;" style="text;html=1;align=center;verticalAlign=middle;whiteSpace=wrap;rounded=0;" parent="lni71YWlgwytNNIKN3gq-384" vertex="1">
          <mxGeometry x="50" y="25" width="60" height="30" as="geometry" />
        </mxCell>
        <mxCell id="lni71YWlgwytNNIKN3gq-375" value="" style="shape=flexArrow;endArrow=none;html=1;rounded=0;endFill=0;dashed=1;fillColor=#fff2cc;gradientColor=none;strokeColor=#d6b656;" parent="lni71YWlgwytNNIKN3gq-384" edge="1">
          <mxGeometry width="50" height="50" relative="1" as="geometry">
            <mxPoint x="150" y="60" as="sourcePoint" />
            <mxPoint x="150" y="20" as="targetPoint" />
          </mxGeometry>
        </mxCell>
        <mxCell id="lni71YWlgwytNNIKN3gq-376" value="Storm&lt;div&gt;Drain&lt;/div&gt;" style="text;html=1;align=center;verticalAlign=middle;whiteSpace=wrap;rounded=0;" parent="lni71YWlgwytNNIKN3gq-384" vertex="1">
          <mxGeometry x="160" y="25" width="60" height="30" as="geometry" />
        </mxCell>
        <mxCell id="lni71YWlgwytNNIKN3gq-377" value="" style="shape=flexArrow;endArrow=none;html=1;rounded=0;endFill=0;fillColor=#d5e8d4;gradientColor=none;fillStyle=solid;strokeColor=#82b366;" parent="lni71YWlgwytNNIKN3gq-384" edge="1">
          <mxGeometry width="50" height="50" relative="1" as="geometry">
            <mxPoint x="260" y="60" as="sourcePoint" />
            <mxPoint x="260" y="20" as="targetPoint" />
            <Array as="points" />
          </mxGeometry>
        </mxCell>
        <mxCell id="lni71YWlgwytNNIKN3gq-378" value="" style="shape=flexArrow;endArrow=none;html=1;rounded=0;endFill=0;fillColor=#fad7ac;fillStyle=solid;strokeColor=#b46504;" parent="lni71YWlgwytNNIKN3gq-384" edge="1">
          <mxGeometry width="50" height="50" relative="1" as="geometry">
            <mxPoint x="270" y="60" as="sourcePoint" />
            <mxPoint x="270" y="20" as="targetPoint" />
          </mxGeometry>
        </mxCell>
        <mxCell id="lni71YWlgwytNNIKN3gq-379" value="" style="shape=flexArrow;endArrow=none;html=1;rounded=0;endFill=0;fillColor=#dae8fc;gradientColor=none;fillStyle=solid;strokeColor=#6c8ebf;" parent="lni71YWlgwytNNIKN3gq-384" edge="1">
          <mxGeometry width="50" height="50" relative="1" as="geometry">
            <mxPoint x="280" y="60" as="sourcePoint" />
            <mxPoint x="280" y="20" as="targetPoint" />
          </mxGeometry>
        </mxCell>
        <mxCell id="lni71YWlgwytNNIKN3gq-380" value="Subway" style="text;html=1;align=center;verticalAlign=middle;whiteSpace=wrap;rounded=0;" parent="lni71YWlgwytNNIKN3gq-384" vertex="1">
          <mxGeometry x="290" y="25" width="60" height="30" as="geometry" />
        </mxCell>
        <mxCell id="lni71YWlgwytNNIKN3gq-381" value="" style="whiteSpace=wrap;html=1;aspect=fixed;fillColor=#f8cecc;strokeColor=#b85450;" parent="lni71YWlgwytNNIKN3gq-384" vertex="1">
          <mxGeometry x="380" y="30" width="20" height="20" as="geometry" />
        </mxCell>
        <mxCell id="lni71YWlgwytNNIKN3gq-382" value="Starting&lt;div&gt;Area&lt;/div&gt;" style="text;html=1;align=center;verticalAlign=middle;whiteSpace=wrap;rounded=0;" parent="lni71YWlgwytNNIKN3gq-384" vertex="1">
          <mxGeometry x="410" y="25" width="60" height="30" as="geometry" />
        </mxCell>
        <mxCell id="lni71YWlgwytNNIKN3gq-65" value="Rooms" parent="WIyWlLk6GJQsqaUBKTNV-0" visible="0" />
        <mxCell id="lni71YWlgwytNNIKN3gq-69" value="248" style="whiteSpace=wrap;html=1;aspect=fixed;fillColor=default;fontSize=9;" parent="lni71YWlgwytNNIKN3gq-65" vertex="1">
          <mxGeometry x="-10" y="430" width="20" height="20" as="geometry" />
        </mxCell>
        <mxCell id="lni71YWlgwytNNIKN3gq-96" value="250" style="whiteSpace=wrap;html=1;aspect=fixed;fillColor=default;fontSize=9;" parent="lni71YWlgwytNNIKN3gq-65" vertex="1">
          <mxGeometry x="70" y="430" width="20" height="20" as="geometry" />
        </mxCell>
        <mxCell id="lni71YWlgwytNNIKN3gq-99" value="22" style="whiteSpace=wrap;html=1;aspect=fixed;fillColor=default;fontSize=9;" parent="lni71YWlgwytNNIKN3gq-65" vertex="1">
          <mxGeometry x="150" y="430" width="20" height="20" as="geometry" />
        </mxCell>
        <mxCell id="lni71YWlgwytNNIKN3gq-100" value="254" style="whiteSpace=wrap;html=1;aspect=fixed;fillColor=default;fontSize=9;" parent="lni71YWlgwytNNIKN3gq-65" vertex="1">
          <mxGeometry x="230" y="430" width="20" height="20" as="geometry" />
        </mxCell>
        <mxCell id="lni71YWlgwytNNIKN3gq-101" value="253" style="whiteSpace=wrap;html=1;aspect=fixed;fillColor=default;fontSize=9;" parent="lni71YWlgwytNNIKN3gq-65" vertex="1">
          <mxGeometry x="190" y="430" width="20" height="20" as="geometry" />
        </mxCell>
        <mxCell id="lni71YWlgwytNNIKN3gq-102" value="255" style="whiteSpace=wrap;html=1;aspect=fixed;fillColor=default;fontSize=9;" parent="lni71YWlgwytNNIKN3gq-65" vertex="1">
          <mxGeometry x="270" y="430" width="20" height="20" as="geometry" />
        </mxCell>
        <mxCell id="lni71YWlgwytNNIKN3gq-103" value="256" style="whiteSpace=wrap;html=1;aspect=fixed;fillColor=default;fontSize=9;" parent="lni71YWlgwytNNIKN3gq-65" vertex="1">
          <mxGeometry x="310" y="430" width="20" height="20" as="geometry" />
        </mxCell>
        <mxCell id="lni71YWlgwytNNIKN3gq-104" value="258" style="whiteSpace=wrap;html=1;aspect=fixed;fillColor=default;fontSize=9;" parent="lni71YWlgwytNNIKN3gq-65" vertex="1">
          <mxGeometry x="390" y="430" width="20" height="20" as="geometry" />
        </mxCell>
        <mxCell id="lni71YWlgwytNNIKN3gq-106" value="259" style="whiteSpace=wrap;html=1;aspect=fixed;fillColor=default;fontSize=9;" parent="lni71YWlgwytNNIKN3gq-65" vertex="1">
          <mxGeometry x="430" y="430" width="20" height="20" as="geometry" />
        </mxCell>
        <mxCell id="lni71YWlgwytNNIKN3gq-107" value="260" style="whiteSpace=wrap;html=1;aspect=fixed;fillColor=default;fontSize=9;" parent="lni71YWlgwytNNIKN3gq-65" vertex="1">
          <mxGeometry x="470" y="430" width="20" height="20" as="geometry" />
        </mxCell>
        <mxCell id="lni71YWlgwytNNIKN3gq-108" value="262" style="whiteSpace=wrap;html=1;aspect=fixed;fillColor=default;fontSize=9;" parent="lni71YWlgwytNNIKN3gq-65" vertex="1">
          <mxGeometry x="550" y="430" width="20" height="20" as="geometry" />
        </mxCell>
        <mxCell id="lni71YWlgwytNNIKN3gq-111" value="264" style="whiteSpace=wrap;html=1;aspect=fixed;fillColor=default;fontSize=9;" parent="lni71YWlgwytNNIKN3gq-65" vertex="1">
          <mxGeometry x="630" y="430" width="20" height="20" as="geometry" />
        </mxCell>
        <mxCell id="lni71YWlgwytNNIKN3gq-112" value="210" style="whiteSpace=wrap;html=1;aspect=fixed;fillColor=default;fontSize=9;" parent="lni71YWlgwytNNIKN3gq-65" vertex="1">
          <mxGeometry x="-10" y="350" width="20" height="20" as="geometry" />
        </mxCell>
        <mxCell id="lni71YWlgwytNNIKN3gq-113" value="212" style="whiteSpace=wrap;html=1;aspect=fixed;fillColor=default;fontSize=9;" parent="lni71YWlgwytNNIKN3gq-65" vertex="1">
          <mxGeometry x="70" y="350" width="20" height="20" as="geometry" />
        </mxCell>
        <mxCell id="lni71YWlgwytNNIKN3gq-114" value="211" style="whiteSpace=wrap;html=1;aspect=fixed;fontSize=9;" parent="lni71YWlgwytNNIKN3gq-65" vertex="1">
          <mxGeometry x="30" y="350" width="20" height="20" as="geometry" />
        </mxCell>
        <mxCell id="lni71YWlgwytNNIKN3gq-116" value="214" style="whiteSpace=wrap;html=1;aspect=fixed;fillColor=default;fontSize=9;" parent="lni71YWlgwytNNIKN3gq-65" vertex="1">
          <mxGeometry x="150" y="350" width="20" height="20" as="geometry" />
        </mxCell>
        <mxCell id="lni71YWlgwytNNIKN3gq-117" value="216" style="whiteSpace=wrap;html=1;aspect=fixed;fillColor=default;fontSize=9;" parent="lni71YWlgwytNNIKN3gq-65" vertex="1">
          <mxGeometry x="230" y="350" width="20" height="20" as="geometry" />
        </mxCell>
        <mxCell id="lni71YWlgwytNNIKN3gq-118" value="215" style="whiteSpace=wrap;html=1;aspect=fixed;fillColor=default;fontSize=9;" parent="lni71YWlgwytNNIKN3gq-65" vertex="1">
          <mxGeometry x="190" y="350" width="20" height="20" as="geometry" />
        </mxCell>
        <mxCell id="lni71YWlgwytNNIKN3gq-119" value="217" style="whiteSpace=wrap;html=1;aspect=fixed;fillColor=default;fontSize=9;" parent="lni71YWlgwytNNIKN3gq-65" vertex="1">
          <mxGeometry x="270" y="350" width="20" height="20" as="geometry" />
        </mxCell>
        <mxCell id="lni71YWlgwytNNIKN3gq-120" value="218" style="whiteSpace=wrap;html=1;aspect=fixed;fillColor=default;fontSize=9;" parent="lni71YWlgwytNNIKN3gq-65" vertex="1">
          <mxGeometry x="310" y="350" width="20" height="20" as="geometry" />
        </mxCell>
        <mxCell id="lni71YWlgwytNNIKN3gq-121" value="220" style="whiteSpace=wrap;html=1;aspect=fixed;fillColor=default;fontSize=9;" parent="lni71YWlgwytNNIKN3gq-65" vertex="1">
          <mxGeometry x="390" y="350" width="20" height="20" as="geometry" />
        </mxCell>
        <mxCell id="lni71YWlgwytNNIKN3gq-123" value="221" style="whiteSpace=wrap;html=1;aspect=fixed;fillColor=default;fontSize=9;" parent="lni71YWlgwytNNIKN3gq-65" vertex="1">
          <mxGeometry x="430" y="350" width="20" height="20" as="geometry" />
        </mxCell>
        <mxCell id="lni71YWlgwytNNIKN3gq-125" value="224" style="whiteSpace=wrap;html=1;aspect=fixed;fillColor=default;fontSize=9;" parent="lni71YWlgwytNNIKN3gq-65" vertex="1">
          <mxGeometry x="550" y="350" width="20" height="20" as="geometry" />
        </mxCell>
        <mxCell id="lni71YWlgwytNNIKN3gq-126" value="223" style="whiteSpace=wrap;html=1;aspect=fixed;fillColor=default;fontSize=9;" parent="lni71YWlgwytNNIKN3gq-65" vertex="1">
          <mxGeometry x="510" y="350" width="20" height="20" as="geometry" />
        </mxCell>
        <mxCell id="lni71YWlgwytNNIKN3gq-127" value="225" style="whiteSpace=wrap;html=1;aspect=fixed;fillColor=default;fontSize=9;" parent="lni71YWlgwytNNIKN3gq-65" vertex="1">
          <mxGeometry x="590" y="350" width="20" height="20" as="geometry" />
        </mxCell>
        <mxCell id="lni71YWlgwytNNIKN3gq-128" value="226" style="whiteSpace=wrap;html=1;aspect=fixed;fillColor=default;fontSize=9;" parent="lni71YWlgwytNNIKN3gq-65" vertex="1">
          <mxGeometry x="630" y="350" width="20" height="20" as="geometry" />
        </mxCell>
        <mxCell id="lni71YWlgwytNNIKN3gq-129" value="172" style="whiteSpace=wrap;html=1;aspect=fixed;fillColor=default;fontSize=9;" parent="lni71YWlgwytNNIKN3gq-65" vertex="1">
          <mxGeometry x="-10" y="270" width="20" height="20" as="geometry" />
        </mxCell>
        <mxCell id="lni71YWlgwytNNIKN3gq-130" value="174" style="whiteSpace=wrap;html=1;aspect=fixed;fillColor=default;fontSize=9;" parent="lni71YWlgwytNNIKN3gq-65" vertex="1">
          <mxGeometry x="70" y="270" width="20" height="20" as="geometry" />
        </mxCell>
        <mxCell id="lni71YWlgwytNNIKN3gq-133" value="176" style="whiteSpace=wrap;html=1;aspect=fixed;fillColor=default;fontSize=9;" parent="lni71YWlgwytNNIKN3gq-65" vertex="1">
          <mxGeometry x="150" y="270" width="20" height="20" as="geometry" />
        </mxCell>
        <mxCell id="lni71YWlgwytNNIKN3gq-134" value="178" style="whiteSpace=wrap;html=1;aspect=fixed;fillColor=default;fontSize=9;" parent="lni71YWlgwytNNIKN3gq-65" vertex="1">
          <mxGeometry x="230" y="270" width="20" height="20" as="geometry" />
        </mxCell>
        <mxCell id="lni71YWlgwytNNIKN3gq-135" value="177" style="whiteSpace=wrap;html=1;aspect=fixed;fillColor=default;fontSize=9;" parent="lni71YWlgwytNNIKN3gq-65" vertex="1">
          <mxGeometry x="190" y="270" width="20" height="20" as="geometry" />
        </mxCell>
        <mxCell id="lni71YWlgwytNNIKN3gq-136" value="179" style="whiteSpace=wrap;html=1;aspect=fixed;fillColor=default;fontSize=9;" parent="lni71YWlgwytNNIKN3gq-65" vertex="1">
          <mxGeometry x="270" y="270" width="20" height="20" as="geometry" />
        </mxCell>
        <mxCell id="lni71YWlgwytNNIKN3gq-137" value="180" style="whiteSpace=wrap;html=1;aspect=fixed;fillColor=default;fontSize=9;" parent="lni71YWlgwytNNIKN3gq-65" vertex="1">
          <mxGeometry x="310" y="270" width="20" height="20" as="geometry" />
        </mxCell>
        <mxCell id="lni71YWlgwytNNIKN3gq-138" value="182" style="whiteSpace=wrap;html=1;aspect=fixed;fillColor=default;fontSize=9;" parent="lni71YWlgwytNNIKN3gq-65" vertex="1">
          <mxGeometry x="390" y="270" width="20" height="20" as="geometry" />
        </mxCell>
        <mxCell id="lni71YWlgwytNNIKN3gq-140" value="183" style="whiteSpace=wrap;html=1;aspect=fixed;fillColor=default;fontSize=9;" parent="lni71YWlgwytNNIKN3gq-65" vertex="1">
          <mxGeometry x="430" y="270" width="20" height="20" as="geometry" />
        </mxCell>
        <mxCell id="lni71YWlgwytNNIKN3gq-142" value="186" style="whiteSpace=wrap;html=1;aspect=fixed;fillColor=default;fontSize=9;" parent="lni71YWlgwytNNIKN3gq-65" vertex="1">
          <mxGeometry x="550" y="270" width="20" height="20" as="geometry" />
        </mxCell>
        <mxCell id="lni71YWlgwytNNIKN3gq-143" value="185" style="whiteSpace=wrap;html=1;aspect=fixed;fillColor=default;fontSize=9;" parent="lni71YWlgwytNNIKN3gq-65" vertex="1">
          <mxGeometry x="510" y="270" width="20" height="20" as="geometry" />
        </mxCell>
        <mxCell id="lni71YWlgwytNNIKN3gq-145" value="188" style="whiteSpace=wrap;html=1;aspect=fixed;fillColor=default;fontSize=9;" parent="lni71YWlgwytNNIKN3gq-65" vertex="1">
          <mxGeometry x="630" y="270" width="20" height="20" as="geometry" />
        </mxCell>
        <mxCell id="lni71YWlgwytNNIKN3gq-146" value="134" style="whiteSpace=wrap;html=1;aspect=fixed;fillColor=default;fontSize=9;" parent="lni71YWlgwytNNIKN3gq-65" vertex="1">
          <mxGeometry x="-10" y="190" width="20" height="20" as="geometry" />
        </mxCell>
        <mxCell id="lni71YWlgwytNNIKN3gq-147" value="136" style="whiteSpace=wrap;html=1;aspect=fixed;fillColor=default;fontSize=9;" parent="lni71YWlgwytNNIKN3gq-65" vertex="1">
          <mxGeometry x="70" y="190" width="20" height="20" as="geometry" />
        </mxCell>
        <mxCell id="lni71YWlgwytNNIKN3gq-150" value="138" style="whiteSpace=wrap;html=1;aspect=fixed;fillColor=default;fontSize=9;" parent="lni71YWlgwytNNIKN3gq-65" vertex="1">
          <mxGeometry x="150" y="190" width="20" height="20" as="geometry" />
        </mxCell>
        <mxCell id="lni71YWlgwytNNIKN3gq-151" value="140" style="whiteSpace=wrap;html=1;aspect=fixed;fillColor=default;fontSize=9;" parent="lni71YWlgwytNNIKN3gq-65" vertex="1">
          <mxGeometry x="230" y="190" width="20" height="20" as="geometry" />
        </mxCell>
        <mxCell id="lni71YWlgwytNNIKN3gq-152" value="139" style="whiteSpace=wrap;html=1;aspect=fixed;fillColor=default;fontSize=9;" parent="lni71YWlgwytNNIKN3gq-65" vertex="1">
          <mxGeometry x="190" y="190" width="20" height="20" as="geometry" />
        </mxCell>
        <mxCell id="lni71YWlgwytNNIKN3gq-153" value="141" style="whiteSpace=wrap;html=1;aspect=fixed;fillColor=default;fontSize=9;" parent="lni71YWlgwytNNIKN3gq-65" vertex="1">
          <mxGeometry x="270" y="190" width="20" height="20" as="geometry" />
        </mxCell>
        <mxCell id="lni71YWlgwytNNIKN3gq-154" value="142" style="whiteSpace=wrap;html=1;aspect=fixed;fillColor=default;fontSize=9;" parent="lni71YWlgwytNNIKN3gq-65" vertex="1">
          <mxGeometry x="310" y="190" width="20" height="20" as="geometry" />
        </mxCell>
        <mxCell id="lni71YWlgwytNNIKN3gq-155" value="144" style="whiteSpace=wrap;html=1;aspect=fixed;fillColor=default;fontSize=9;" parent="lni71YWlgwytNNIKN3gq-65" vertex="1">
          <mxGeometry x="390" y="190" width="20" height="20" as="geometry" />
        </mxCell>
        <mxCell id="lni71YWlgwytNNIKN3gq-158" value="146" style="whiteSpace=wrap;html=1;aspect=fixed;fillColor=default;fontSize=9;" parent="lni71YWlgwytNNIKN3gq-65" vertex="1">
          <mxGeometry x="470" y="190" width="20" height="20" as="geometry" />
        </mxCell>
        <mxCell id="lni71YWlgwytNNIKN3gq-159" value="148" style="whiteSpace=wrap;html=1;aspect=fixed;fillColor=default;fontSize=9;" parent="lni71YWlgwytNNIKN3gq-65" vertex="1">
          <mxGeometry x="550" y="190" width="20" height="20" as="geometry" />
        </mxCell>
        <mxCell id="lni71YWlgwytNNIKN3gq-160" value="147" style="whiteSpace=wrap;html=1;aspect=fixed;fillColor=default;fontSize=9;" parent="lni71YWlgwytNNIKN3gq-65" vertex="1">
          <mxGeometry x="510" y="190" width="20" height="20" as="geometry" />
        </mxCell>
        <mxCell id="lni71YWlgwytNNIKN3gq-162" value="150" style="whiteSpace=wrap;html=1;aspect=fixed;fillColor=default;fontSize=9;" parent="lni71YWlgwytNNIKN3gq-65" vertex="1">
          <mxGeometry x="630" y="190" width="20" height="20" as="geometry" />
        </mxCell>
        <mxCell id="lni71YWlgwytNNIKN3gq-163" value="96" style="whiteSpace=wrap;html=1;aspect=fixed;fillColor=default;fontSize=9;" parent="lni71YWlgwytNNIKN3gq-65" vertex="1">
          <mxGeometry x="-10" y="110" width="20" height="20" as="geometry" />
        </mxCell>
        <mxCell id="lni71YWlgwytNNIKN3gq-164" value="98" style="whiteSpace=wrap;html=1;aspect=fixed;fillColor=default;fontSize=9;" parent="lni71YWlgwytNNIKN3gq-65" vertex="1">
          <mxGeometry x="70" y="110" width="20" height="20" as="geometry" />
        </mxCell>
        <mxCell id="lni71YWlgwytNNIKN3gq-165" value="97" style="whiteSpace=wrap;html=1;aspect=fixed;fillColor=default;fontSize=9;" parent="lni71YWlgwytNNIKN3gq-65" vertex="1">
          <mxGeometry x="30" y="110" width="20" height="20" as="geometry" />
        </mxCell>
        <mxCell id="lni71YWlgwytNNIKN3gq-167" value="100" style="whiteSpace=wrap;html=1;aspect=fixed;fillColor=default;fontSize=9;" parent="lni71YWlgwytNNIKN3gq-65" vertex="1">
          <mxGeometry x="150" y="110" width="20" height="20" as="geometry" />
        </mxCell>
        <mxCell id="lni71YWlgwytNNIKN3gq-168" value="102" style="whiteSpace=wrap;html=1;aspect=fixed;fillColor=default;fontSize=9;" parent="lni71YWlgwytNNIKN3gq-65" vertex="1">
          <mxGeometry x="230" y="110" width="20" height="20" as="geometry" />
        </mxCell>
        <mxCell id="lni71YWlgwytNNIKN3gq-169" value="101" style="whiteSpace=wrap;html=1;aspect=fixed;fillColor=default;fontSize=9;" parent="lni71YWlgwytNNIKN3gq-65" vertex="1">
          <mxGeometry x="190" y="110" width="20" height="20" as="geometry" />
        </mxCell>
        <mxCell id="lni71YWlgwytNNIKN3gq-170" value="103" style="whiteSpace=wrap;html=1;aspect=fixed;fillColor=default;fontSize=9;" parent="lni71YWlgwytNNIKN3gq-65" vertex="1">
          <mxGeometry x="270" y="110" width="20" height="20" as="geometry" />
        </mxCell>
        <mxCell id="lni71YWlgwytNNIKN3gq-171" value="104" style="whiteSpace=wrap;html=1;aspect=fixed;fillColor=default;fontSize=9;" parent="lni71YWlgwytNNIKN3gq-65" vertex="1">
          <mxGeometry x="310" y="110" width="20" height="20" as="geometry" />
        </mxCell>
        <mxCell id="lni71YWlgwytNNIKN3gq-172" value="106" style="whiteSpace=wrap;html=1;aspect=fixed;fillColor=default;fontSize=9;" parent="lni71YWlgwytNNIKN3gq-65" vertex="1">
          <mxGeometry x="390" y="110" width="20" height="20" as="geometry" />
        </mxCell>
        <mxCell id="lni71YWlgwytNNIKN3gq-174" value="107" style="whiteSpace=wrap;html=1;aspect=fixed;fillColor=default;fontSize=9;" parent="lni71YWlgwytNNIKN3gq-65" vertex="1">
          <mxGeometry x="430" y="110" width="20" height="20" as="geometry" />
        </mxCell>
        <mxCell id="lni71YWlgwytNNIKN3gq-175" value="108" style="whiteSpace=wrap;html=1;aspect=fixed;fillColor=default;fontSize=9;" parent="lni71YWlgwytNNIKN3gq-65" vertex="1">
          <mxGeometry x="470" y="110" width="20" height="20" as="geometry" />
        </mxCell>
        <mxCell id="lni71YWlgwytNNIKN3gq-176" value="110" style="whiteSpace=wrap;html=1;aspect=fixed;fillColor=default;fontSize=9;" parent="lni71YWlgwytNNIKN3gq-65" vertex="1">
          <mxGeometry x="550" y="110" width="20" height="20" as="geometry" />
        </mxCell>
        <mxCell id="lni71YWlgwytNNIKN3gq-177" value="109" style="whiteSpace=wrap;html=1;aspect=fixed;fillColor=default;fontSize=9;" parent="lni71YWlgwytNNIKN3gq-65" vertex="1">
          <mxGeometry x="510" y="110" width="20" height="20" as="geometry" />
        </mxCell>
        <mxCell id="lni71YWlgwytNNIKN3gq-179" value="112" style="whiteSpace=wrap;html=1;aspect=fixed;fillColor=default;fontSize=9;" parent="lni71YWlgwytNNIKN3gq-65" vertex="1">
          <mxGeometry x="630" y="110" width="20" height="20" as="geometry" />
        </mxCell>
        <mxCell id="lni71YWlgwytNNIKN3gq-180" value="58" style="whiteSpace=wrap;html=1;aspect=fixed;fillColor=default;fontSize=9;" parent="lni71YWlgwytNNIKN3gq-65" vertex="1">
          <mxGeometry x="-10" y="30" width="20" height="20" as="geometry" />
        </mxCell>
        <mxCell id="lni71YWlgwytNNIKN3gq-181" value="60" style="whiteSpace=wrap;html=1;aspect=fixed;fillColor=default;fontSize=9;" parent="lni71YWlgwytNNIKN3gq-65" vertex="1">
          <mxGeometry x="70" y="30" width="20" height="20" as="geometry" />
        </mxCell>
        <mxCell id="lni71YWlgwytNNIKN3gq-184" value="62" style="whiteSpace=wrap;html=1;aspect=fixed;fillColor=default;fontSize=9;" parent="lni71YWlgwytNNIKN3gq-65" vertex="1">
          <mxGeometry x="150" y="30" width="20" height="20" as="geometry" />
        </mxCell>
        <mxCell id="lni71YWlgwytNNIKN3gq-185" value="64" style="whiteSpace=wrap;html=1;aspect=fixed;fillColor=default;fontSize=9;" parent="lni71YWlgwytNNIKN3gq-65" vertex="1">
          <mxGeometry x="230" y="30" width="20" height="20" as="geometry" />
        </mxCell>
        <mxCell id="lni71YWlgwytNNIKN3gq-186" value="63" style="whiteSpace=wrap;html=1;aspect=fixed;fillColor=default;fontSize=9;" parent="lni71YWlgwytNNIKN3gq-65" vertex="1">
          <mxGeometry x="190" y="30" width="20" height="20" as="geometry" />
        </mxCell>
        <mxCell id="lni71YWlgwytNNIKN3gq-187" value="65" style="whiteSpace=wrap;html=1;aspect=fixed;fillColor=default;fontSize=9;" parent="lni71YWlgwytNNIKN3gq-65" vertex="1">
          <mxGeometry x="270" y="30" width="20" height="20" as="geometry" />
        </mxCell>
        <mxCell id="lni71YWlgwytNNIKN3gq-188" value="66" style="whiteSpace=wrap;html=1;aspect=fixed;fillColor=default;fontSize=9;" parent="lni71YWlgwytNNIKN3gq-65" vertex="1">
          <mxGeometry x="310" y="30" width="20" height="20" as="geometry" />
        </mxCell>
        <mxCell id="lni71YWlgwytNNIKN3gq-189" value="68" style="whiteSpace=wrap;html=1;aspect=fixed;fillColor=default;fontSize=9;" parent="lni71YWlgwytNNIKN3gq-65" vertex="1">
          <mxGeometry x="390" y="30" width="20" height="20" as="geometry" />
        </mxCell>
        <mxCell id="lni71YWlgwytNNIKN3gq-191" value="69" style="whiteSpace=wrap;html=1;aspect=fixed;fillColor=default;fontSize=9;" parent="lni71YWlgwytNNIKN3gq-65" vertex="1">
          <mxGeometry x="430" y="30" width="20" height="20" as="geometry" />
        </mxCell>
        <mxCell id="lni71YWlgwytNNIKN3gq-192" value="70" style="whiteSpace=wrap;html=1;aspect=fixed;fillColor=default;fontSize=9;" parent="lni71YWlgwytNNIKN3gq-65" vertex="1">
          <mxGeometry x="470" y="30" width="20" height="20" as="geometry" />
        </mxCell>
        <mxCell id="lni71YWlgwytNNIKN3gq-194" value="71" style="whiteSpace=wrap;html=1;aspect=fixed;fillColor=default;fontSize=9;" parent="lni71YWlgwytNNIKN3gq-65" vertex="1">
          <mxGeometry x="510" y="30" width="20" height="20" as="geometry" />
        </mxCell>
        <mxCell id="lni71YWlgwytNNIKN3gq-195" value="73" style="whiteSpace=wrap;html=1;aspect=fixed;fillColor=default;fontSize=9;" parent="lni71YWlgwytNNIKN3gq-65" vertex="1">
          <mxGeometry x="590" y="30" width="20" height="20" as="geometry" />
        </mxCell>
        <mxCell id="lni71YWlgwytNNIKN3gq-196" value="74" style="whiteSpace=wrap;html=1;aspect=fixed;fillColor=default;fontSize=9;" parent="lni71YWlgwytNNIKN3gq-65" vertex="1">
          <mxGeometry x="630" y="30" width="20" height="20" as="geometry" />
        </mxCell>
        <mxCell id="lni71YWlgwytNNIKN3gq-197" value="20" style="whiteSpace=wrap;html=1;aspect=fixed;fillColor=default;fontSize=9;" parent="lni71YWlgwytNNIKN3gq-65" vertex="1">
          <mxGeometry x="-10" y="-50" width="20" height="20" as="geometry" />
        </mxCell>
        <mxCell id="lni71YWlgwytNNIKN3gq-198" value="22" style="whiteSpace=wrap;html=1;aspect=fixed;fillColor=default;fontSize=9;" parent="lni71YWlgwytNNIKN3gq-65" vertex="1">
          <mxGeometry x="70" y="-50" width="20" height="20" as="geometry" />
        </mxCell>
        <mxCell id="lni71YWlgwytNNIKN3gq-199" value="21" style="whiteSpace=wrap;html=1;aspect=fixed;fillColor=default;fontSize=9;" parent="lni71YWlgwytNNIKN3gq-65" vertex="1">
          <mxGeometry x="30" y="-50" width="20" height="20" as="geometry" />
        </mxCell>
        <mxCell id="lni71YWlgwytNNIKN3gq-201" value="24" style="whiteSpace=wrap;html=1;aspect=fixed;fillColor=default;fontSize=9;" parent="lni71YWlgwytNNIKN3gq-65" vertex="1">
          <mxGeometry x="150" y="-50" width="20" height="20" as="geometry" />
        </mxCell>
        <mxCell id="_ffZxEVP9vw5_LnrRt1j-0" value="" style="edgeStyle=orthogonalEdgeStyle;rounded=0;orthogonalLoop=1;jettySize=auto;html=1;" edge="1" parent="lni71YWlgwytNNIKN3gq-65" source="lni71YWlgwytNNIKN3gq-202" target="lni71YWlgwytNNIKN3gq-34">
          <mxGeometry relative="1" as="geometry" />
        </mxCell>
        <mxCell id="lni71YWlgwytNNIKN3gq-202" value="26" style="whiteSpace=wrap;html=1;aspect=fixed;fillColor=default;fontSize=9;" parent="lni71YWlgwytNNIKN3gq-65" vertex="1">
          <mxGeometry x="230" y="-50" width="20" height="20" as="geometry" />
        </mxCell>
        <mxCell id="lni71YWlgwytNNIKN3gq-203" value="25" style="whiteSpace=wrap;html=1;aspect=fixed;fillColor=default;fontSize=9;" parent="lni71YWlgwytNNIKN3gq-65" vertex="1">
          <mxGeometry x="190" y="-50" width="20" height="20" as="geometry" />
        </mxCell>
        <mxCell id="lni71YWlgwytNNIKN3gq-204" value="27" style="whiteSpace=wrap;html=1;aspect=fixed;fillColor=default;fontSize=9;" parent="lni71YWlgwytNNIKN3gq-65" vertex="1">
          <mxGeometry x="270" y="-50" width="20" height="20" as="geometry" />
        </mxCell>
        <mxCell id="lni71YWlgwytNNIKN3gq-205" value="28" style="whiteSpace=wrap;html=1;aspect=fixed;fillColor=default;fontSize=9;" parent="lni71YWlgwytNNIKN3gq-65" vertex="1">
          <mxGeometry x="310" y="-50" width="20" height="20" as="geometry" />
        </mxCell>
        <mxCell id="lni71YWlgwytNNIKN3gq-206" value="30" style="whiteSpace=wrap;html=1;aspect=fixed;fillColor=default;fontSize=9;" parent="lni71YWlgwytNNIKN3gq-65" vertex="1">
          <mxGeometry x="390" y="-50" width="20" height="20" as="geometry" />
        </mxCell>
        <mxCell id="lni71YWlgwytNNIKN3gq-208" value="31" style="whiteSpace=wrap;html=1;aspect=fixed;fillColor=default;fontSize=9;" parent="lni71YWlgwytNNIKN3gq-65" vertex="1">
          <mxGeometry x="430" y="-50" width="20" height="20" as="geometry" />
        </mxCell>
        <mxCell id="lni71YWlgwytNNIKN3gq-209" value="32" style="whiteSpace=wrap;html=1;aspect=fixed;fillColor=default;fontSize=9;" parent="lni71YWlgwytNNIKN3gq-65" vertex="1">
          <mxGeometry x="470" y="-50" width="20" height="20" as="geometry" />
        </mxCell>
        <mxCell id="lni71YWlgwytNNIKN3gq-211" value="33" style="whiteSpace=wrap;html=1;aspect=fixed;fillColor=default;fontSize=9;" parent="lni71YWlgwytNNIKN3gq-65" vertex="1">
          <mxGeometry x="510" y="-50" width="20" height="20" as="geometry" />
        </mxCell>
        <mxCell id="lni71YWlgwytNNIKN3gq-212" value="35" style="whiteSpace=wrap;html=1;aspect=fixed;fillColor=default;fontSize=9;" parent="lni71YWlgwytNNIKN3gq-65" vertex="1">
          <mxGeometry x="590" y="-50" width="20" height="20" as="geometry" />
        </mxCell>
        <mxCell id="lni71YWlgwytNNIKN3gq-213" value="36" style="whiteSpace=wrap;html=1;aspect=fixed;fillColor=default;fontSize=9;" parent="lni71YWlgwytNNIKN3gq-65" vertex="1">
          <mxGeometry x="630" y="-50" width="20" height="20" as="geometry" />
        </mxCell>
        <mxCell id="lni71YWlgwytNNIKN3gq-223" value="77" style="whiteSpace=wrap;html=1;aspect=fixed;fillColor=default;fontSize=9;" parent="lni71YWlgwytNNIKN3gq-65" vertex="1">
          <mxGeometry x="-10" y="70" width="20" height="20" as="geometry" />
        </mxCell>
        <mxCell id="lni71YWlgwytNNIKN3gq-224" value="79" style="whiteSpace=wrap;html=1;aspect=fixed;fontSize=9;" parent="lni71YWlgwytNNIKN3gq-65" vertex="1">
          <mxGeometry x="70" y="70" width="20" height="20" as="geometry" />
        </mxCell>
        <mxCell id="lni71YWlgwytNNIKN3gq-228" value="87" style="whiteSpace=wrap;html=1;aspect=fixed;fillColor=default;fontSize=9;" parent="lni71YWlgwytNNIKN3gq-65" vertex="1">
          <mxGeometry x="390" y="70" width="20" height="20" as="geometry" />
        </mxCell>
        <mxCell id="lni71YWlgwytNNIKN3gq-229" value="89" style="whiteSpace=wrap;html=1;aspect=fixed;fillColor=default;fontSize=9;" parent="lni71YWlgwytNNIKN3gq-65" vertex="1">
          <mxGeometry x="470" y="70" width="20" height="20" as="geometry" />
        </mxCell>
        <mxCell id="lni71YWlgwytNNIKN3gq-230" value="91" style="whiteSpace=wrap;html=1;aspect=fixed;fillColor=default;fontSize=9;" parent="lni71YWlgwytNNIKN3gq-65" vertex="1">
          <mxGeometry x="550" y="70" width="20" height="20" as="geometry" />
        </mxCell>
        <mxCell id="lni71YWlgwytNNIKN3gq-231" value="93" style="whiteSpace=wrap;html=1;aspect=fixed;fillColor=default;fontSize=9;" parent="lni71YWlgwytNNIKN3gq-65" vertex="1">
          <mxGeometry x="630" y="70" width="20" height="20" as="geometry" />
        </mxCell>
        <mxCell id="lni71YWlgwytNNIKN3gq-233" value="117" style="whiteSpace=wrap;html=1;aspect=fixed;fillColor=default;fontSize=9;" parent="lni71YWlgwytNNIKN3gq-65" vertex="1">
          <mxGeometry x="70" y="150" width="20" height="20" as="geometry" />
        </mxCell>
        <mxCell id="lni71YWlgwytNNIKN3gq-234" value="119" style="whiteSpace=wrap;html=1;aspect=fixed;fillColor=default;fontSize=9;" parent="lni71YWlgwytNNIKN3gq-65" vertex="1">
          <mxGeometry x="150" y="150" width="20" height="20" as="geometry" />
        </mxCell>
        <mxCell id="lni71YWlgwytNNIKN3gq-235" value="121" style="whiteSpace=wrap;html=1;aspect=fixed;fillColor=default;fontSize=9;" parent="lni71YWlgwytNNIKN3gq-65" vertex="1">
          <mxGeometry x="230" y="150" width="20" height="20" as="geometry" />
        </mxCell>
        <mxCell id="lni71YWlgwytNNIKN3gq-236" value="123" style="whiteSpace=wrap;html=1;aspect=fixed;fillColor=default;fontSize=9;" parent="lni71YWlgwytNNIKN3gq-65" vertex="1">
          <mxGeometry x="310" y="150" width="20" height="20" as="geometry" />
        </mxCell>
        <mxCell id="lni71YWlgwytNNIKN3gq-238" value="127" style="whiteSpace=wrap;html=1;aspect=fixed;fillColor=default;fontSize=9;" parent="lni71YWlgwytNNIKN3gq-65" vertex="1">
          <mxGeometry x="470" y="150" width="20" height="20" as="geometry" />
        </mxCell>
        <mxCell id="lni71YWlgwytNNIKN3gq-239" value="129" style="whiteSpace=wrap;html=1;aspect=fixed;fillColor=default;fontSize=9;" parent="lni71YWlgwytNNIKN3gq-65" vertex="1">
          <mxGeometry x="550" y="150" width="20" height="20" as="geometry" />
        </mxCell>
        <mxCell id="lni71YWlgwytNNIKN3gq-240" value="131" style="whiteSpace=wrap;html=1;aspect=fixed;fillColor=default;fontSize=9;" parent="lni71YWlgwytNNIKN3gq-65" vertex="1">
          <mxGeometry x="630" y="150" width="20" height="20" as="geometry" />
        </mxCell>
        <mxCell id="lni71YWlgwytNNIKN3gq-241" value="153" style="whiteSpace=wrap;html=1;aspect=fixed;fillColor=default;fontSize=9;" parent="lni71YWlgwytNNIKN3gq-65" vertex="1">
          <mxGeometry x="-10" y="230" width="20" height="20" as="geometry" />
        </mxCell>
        <mxCell id="lni71YWlgwytNNIKN3gq-242" value="155" style="whiteSpace=wrap;html=1;aspect=fixed;fillColor=default;fontSize=9;" parent="lni71YWlgwytNNIKN3gq-65" vertex="1">
          <mxGeometry x="70" y="230" width="20" height="20" as="geometry" />
        </mxCell>
        <mxCell id="lni71YWlgwytNNIKN3gq-243" value="157" style="whiteSpace=wrap;html=1;aspect=fixed;fillColor=default;fontSize=9;" parent="lni71YWlgwytNNIKN3gq-65" vertex="1">
          <mxGeometry x="150" y="230" width="20" height="20" as="geometry" />
        </mxCell>
        <mxCell id="lni71YWlgwytNNIKN3gq-244" value="159" style="whiteSpace=wrap;html=1;aspect=fixed;fillColor=default;fontSize=9;" parent="lni71YWlgwytNNIKN3gq-65" vertex="1">
          <mxGeometry x="230" y="230" width="20" height="20" as="geometry" />
        </mxCell>
        <mxCell id="lni71YWlgwytNNIKN3gq-245" value="161" style="whiteSpace=wrap;html=1;aspect=fixed;fillColor=default;fontSize=9;" parent="lni71YWlgwytNNIKN3gq-65" vertex="1">
          <mxGeometry x="310" y="230" width="20" height="20" as="geometry" />
        </mxCell>
        <mxCell id="lni71YWlgwytNNIKN3gq-246" value="163" style="whiteSpace=wrap;html=1;aspect=fixed;fillColor=default;fontSize=9;" parent="lni71YWlgwytNNIKN3gq-65" vertex="1">
          <mxGeometry x="390" y="230" width="20" height="20" as="geometry" />
        </mxCell>
        <mxCell id="lni71YWlgwytNNIKN3gq-248" value="167" style="whiteSpace=wrap;html=1;aspect=fixed;fillColor=default;fontSize=9;" parent="lni71YWlgwytNNIKN3gq-65" vertex="1">
          <mxGeometry x="550" y="230" width="20" height="20" as="geometry" />
        </mxCell>
        <mxCell id="lni71YWlgwytNNIKN3gq-249" value="169" style="whiteSpace=wrap;html=1;aspect=fixed;fillColor=default;fontSize=9;" parent="lni71YWlgwytNNIKN3gq-65" vertex="1">
          <mxGeometry x="630" y="230" width="20" height="20" as="geometry" />
        </mxCell>
        <mxCell id="lni71YWlgwytNNIKN3gq-250" value="191" style="whiteSpace=wrap;html=1;aspect=fixed;fillColor=default;fontSize=9;" parent="lni71YWlgwytNNIKN3gq-65" vertex="1">
          <mxGeometry x="-10" y="310" width="20" height="20" as="geometry" />
        </mxCell>
        <mxCell id="lni71YWlgwytNNIKN3gq-251" value="193" style="whiteSpace=wrap;html=1;aspect=fixed;fillColor=default;fontSize=9;" parent="lni71YWlgwytNNIKN3gq-65" vertex="1">
          <mxGeometry x="70" y="310" width="20" height="20" as="geometry" />
        </mxCell>
        <mxCell id="lni71YWlgwytNNIKN3gq-252" value="195" style="whiteSpace=wrap;html=1;aspect=fixed;fillColor=default;fontSize=9;" parent="lni71YWlgwytNNIKN3gq-65" vertex="1">
          <mxGeometry x="150" y="310" width="20" height="20" as="geometry" />
        </mxCell>
        <mxCell id="lni71YWlgwytNNIKN3gq-253" value="197" style="whiteSpace=wrap;html=1;aspect=fixed;fillColor=default;fontSize=9;" parent="lni71YWlgwytNNIKN3gq-65" vertex="1">
          <mxGeometry x="230" y="310" width="20" height="20" as="geometry" />
        </mxCell>
        <mxCell id="lni71YWlgwytNNIKN3gq-254" value="199" style="whiteSpace=wrap;html=1;aspect=fixed;fillColor=default;fontSize=9;" parent="lni71YWlgwytNNIKN3gq-65" vertex="1">
          <mxGeometry x="310" y="310" width="20" height="20" as="geometry" />
        </mxCell>
        <mxCell id="lni71YWlgwytNNIKN3gq-255" value="201" style="whiteSpace=wrap;html=1;aspect=fixed;fillColor=default;fontSize=9;" parent="lni71YWlgwytNNIKN3gq-65" vertex="1">
          <mxGeometry x="390" y="310" width="20" height="20" as="geometry" />
        </mxCell>
        <mxCell id="lni71YWlgwytNNIKN3gq-257" value="205" style="whiteSpace=wrap;html=1;aspect=fixed;fillColor=default;fontSize=9;" parent="lni71YWlgwytNNIKN3gq-65" vertex="1">
          <mxGeometry x="550" y="310" width="20" height="20" as="geometry" />
        </mxCell>
        <mxCell id="lni71YWlgwytNNIKN3gq-258" value="207" style="whiteSpace=wrap;html=1;aspect=fixed;fillColor=default;fontSize=9;" parent="lni71YWlgwytNNIKN3gq-65" vertex="1">
          <mxGeometry x="630" y="310" width="20" height="20" as="geometry" />
        </mxCell>
        <mxCell id="lni71YWlgwytNNIKN3gq-268" value="267" style="whiteSpace=wrap;html=1;aspect=fixed;fillColor=default;fontSize=9;" parent="lni71YWlgwytNNIKN3gq-65" vertex="1">
          <mxGeometry x="-10" y="470" width="20" height="20" as="geometry" />
        </mxCell>
        <mxCell id="lni71YWlgwytNNIKN3gq-270" value="271" style="whiteSpace=wrap;html=1;aspect=fixed;fillColor=default;fontSize=9;" parent="lni71YWlgwytNNIKN3gq-65" vertex="1">
          <mxGeometry x="150" y="470" width="20" height="20" as="geometry" />
        </mxCell>
        <mxCell id="lni71YWlgwytNNIKN3gq-271" value="273" style="whiteSpace=wrap;html=1;aspect=fixed;fillColor=default;fontSize=9;" parent="lni71YWlgwytNNIKN3gq-65" vertex="1">
          <mxGeometry x="230" y="470" width="20" height="20" as="geometry" />
        </mxCell>
        <mxCell id="lni71YWlgwytNNIKN3gq-272" value="275" style="whiteSpace=wrap;html=1;aspect=fixed;fillColor=default;fontSize=9;" parent="lni71YWlgwytNNIKN3gq-65" vertex="1">
          <mxGeometry x="310" y="470" width="20" height="20" as="geometry" />
        </mxCell>
        <mxCell id="lni71YWlgwytNNIKN3gq-273" value="277" style="whiteSpace=wrap;html=1;aspect=fixed;fillColor=default;fontSize=9;" parent="lni71YWlgwytNNIKN3gq-65" vertex="1">
          <mxGeometry x="390" y="470" width="20" height="20" as="geometry" />
        </mxCell>
        <mxCell id="lni71YWlgwytNNIKN3gq-274" value="279" style="whiteSpace=wrap;html=1;aspect=fixed;fillColor=default;fontSize=9;" parent="lni71YWlgwytNNIKN3gq-65" vertex="1">
          <mxGeometry x="470" y="470" width="20" height="20" as="geometry" />
        </mxCell>
        <mxCell id="lni71YWlgwytNNIKN3gq-276" value="283" style="whiteSpace=wrap;html=1;aspect=fixed;fillColor=default;fontSize=9;" parent="lni71YWlgwytNNIKN3gq-65" vertex="1">
          <mxGeometry x="630" y="470" width="20" height="20" as="geometry" />
        </mxCell>
        <mxCell id="lni71YWlgwytNNIKN3gq-309" value="247" style="whiteSpace=wrap;html=1;aspect=fixed;fillColor=default;fontSize=9;" parent="lni71YWlgwytNNIKN3gq-65" vertex="1">
          <mxGeometry x="-50" y="430" width="20" height="20" as="geometry" />
        </mxCell>
        <mxCell id="lni71YWlgwytNNIKN3gq-310" value="219" style="whiteSpace=wrap;html=1;aspect=fixed;fillColor=default;fontSize=9;" parent="lni71YWlgwytNNIKN3gq-65" vertex="1">
          <mxGeometry x="-50" y="350" width="20" height="20" as="geometry" />
        </mxCell>
        <mxCell id="lni71YWlgwytNNIKN3gq-311" value="171" style="whiteSpace=wrap;html=1;aspect=fixed;fillColor=default;fontSize=9;" parent="lni71YWlgwytNNIKN3gq-65" vertex="1">
          <mxGeometry x="-50" y="270" width="20" height="20" as="geometry" />
        </mxCell>
        <mxCell id="lni71YWlgwytNNIKN3gq-312" value="133" style="whiteSpace=wrap;html=1;aspect=fixed;fillColor=default;fontSize=9;" parent="lni71YWlgwytNNIKN3gq-65" vertex="1">
          <mxGeometry x="-50" y="190" width="20" height="20" as="geometry" />
        </mxCell>
        <mxCell id="lni71YWlgwytNNIKN3gq-325" value="1" style="whiteSpace=wrap;html=1;aspect=fixed;fillColor=default;fontSize=9;" parent="lni71YWlgwytNNIKN3gq-65" vertex="1">
          <mxGeometry x="-10" y="-90" width="20" height="20" as="geometry" />
        </mxCell>
        <mxCell id="lni71YWlgwytNNIKN3gq-326" value="3" style="whiteSpace=wrap;html=1;aspect=fixed;fillColor=default;fontSize=9;" parent="lni71YWlgwytNNIKN3gq-65" vertex="1">
          <mxGeometry x="70" y="-90" width="20" height="20" as="geometry" />
        </mxCell>
        <mxCell id="lni71YWlgwytNNIKN3gq-327" value="5" style="whiteSpace=wrap;html=1;aspect=fixed;fillColor=default;fontSize=9;" parent="lni71YWlgwytNNIKN3gq-65" vertex="1">
          <mxGeometry x="150" y="-90" width="20" height="20" as="geometry" />
        </mxCell>
        <mxCell id="lni71YWlgwytNNIKN3gq-328" value="7" style="whiteSpace=wrap;html=1;aspect=fixed;fillColor=default;fontSize=9;" parent="lni71YWlgwytNNIKN3gq-65" vertex="1">
          <mxGeometry x="230" y="-90" width="20" height="20" as="geometry" />
        </mxCell>
        <mxCell id="lni71YWlgwytNNIKN3gq-329" value="9" style="whiteSpace=wrap;html=1;aspect=fixed;fillColor=default;fontSize=9;" parent="lni71YWlgwytNNIKN3gq-65" vertex="1">
          <mxGeometry x="310" y="-90" width="20" height="20" as="geometry" />
        </mxCell>
        <mxCell id="lni71YWlgwytNNIKN3gq-330" value="11" style="whiteSpace=wrap;html=1;aspect=fixed;fillColor=default;fontSize=9;" parent="lni71YWlgwytNNIKN3gq-65" vertex="1">
          <mxGeometry x="390" y="-90" width="20" height="20" as="geometry" />
        </mxCell>
        <mxCell id="lni71YWlgwytNNIKN3gq-331" value="13" style="whiteSpace=wrap;html=1;aspect=fixed;fillColor=default;fontSize=9;" parent="lni71YWlgwytNNIKN3gq-65" vertex="1">
          <mxGeometry x="470" y="-90" width="20" height="20" as="geometry" />
        </mxCell>
        <mxCell id="lni71YWlgwytNNIKN3gq-333" value="17" style="whiteSpace=wrap;html=1;aspect=fixed;fillColor=default;fontSize=9;" parent="lni71YWlgwytNNIKN3gq-65" vertex="1">
          <mxGeometry x="630" y="-90" width="20" height="20" as="geometry" />
        </mxCell>
        <mxCell id="WUlikb5VFnGKmN1ONbDT-3" value="1101" style="whiteSpace=wrap;html=1;aspect=fixed;fillColor=default;fontSize=9;" parent="lni71YWlgwytNNIKN3gq-65" vertex="1">
          <mxGeometry x="629" y="520" width="20" height="20" as="geometry" />
        </mxCell>
        <mxCell id="_ffZxEVP9vw5_LnrRt1j-2" value="745" style="whiteSpace=wrap;html=1;aspect=fixed;fillColor=#fff2cc;fontSize=9;strokeColor=#d6b656;" vertex="1" parent="lni71YWlgwytNNIKN3gq-65">
          <mxGeometry x="612" y="379" width="20" height="20" as="geometry" />
        </mxCell>
        <mxCell id="_ffZxEVP9vw5_LnrRt1j-3" value="1181" style="whiteSpace=wrap;html=1;aspect=fixed;fillColor=#fff2cc;fontSize=9;strokeColor=#d6b656;" vertex="1" parent="lni71YWlgwytNNIKN3gq-65">
          <mxGeometry x="659" y="520" width="20" height="20" as="geometry" />
        </mxCell>
        <mxCell id="_ffZxEVP9vw5_LnrRt1j-10" value="1180" style="whiteSpace=wrap;html=1;aspect=fixed;fillColor=#fff2cc;fontSize=9;strokeColor=#d6b656;" vertex="1" parent="lni71YWlgwytNNIKN3gq-65">
          <mxGeometry x="-90" y="-20" width="20" height="20" as="geometry" />
        </mxCell>
        <mxCell id="_ffZxEVP9vw5_LnrRt1j-11" value="1185" style="whiteSpace=wrap;html=1;aspect=fixed;fillColor=#fff2cc;fontSize=9;strokeColor=#d6b656;" vertex="1" parent="lni71YWlgwytNNIKN3gq-65">
          <mxGeometry x="99" y="380" width="20" height="20" as="geometry" />
        </mxCell>
        <mxCell id="_ffZxEVP9vw5_LnrRt1j-12" value="1186" style="whiteSpace=wrap;html=1;aspect=fixed;fillColor=#fff2cc;fontSize=9;strokeColor=#d6b656;" vertex="1" parent="lni71YWlgwytNNIKN3gq-65">
          <mxGeometry x="339" y="380" width="20" height="20" as="geometry" />
        </mxCell>
        <mxCell id="_ffZxEVP9vw5_LnrRt1j-13" value="539" style="whiteSpace=wrap;html=1;aspect=fixed;fillColor=#fff2cc;fontSize=9;strokeColor=#d6b656;" vertex="1" parent="lni71YWlgwytNNIKN3gq-65">
          <mxGeometry x="8" y="-20" width="20" height="20" as="geometry" />
        </mxCell>
        <mxCell id="_ffZxEVP9vw5_LnrRt1j-14" value="1184" style="whiteSpace=wrap;html=1;aspect=fixed;fillColor=#fff2cc;fontSize=9;strokeColor=#d6b656;" vertex="1" parent="lni71YWlgwytNNIKN3gq-65">
          <mxGeometry x="659" y="-21" width="20" height="20" as="geometry" />
        </mxCell>
        <mxCell id="_ffZxEVP9vw5_LnrRt1j-15" value="1183" style="whiteSpace=wrap;html=1;aspect=fixed;fillColor=#fff2cc;fontSize=9;strokeColor=#d6b656;" vertex="1" parent="lni71YWlgwytNNIKN3gq-65">
          <mxGeometry x="339" y="-21" width="20" height="20" as="geometry" />
        </mxCell>
        <mxCell id="_ffZxEVP9vw5_LnrRt1j-16" value="1182" style="whiteSpace=wrap;html=1;aspect=fixed;fillColor=#fff2cc;fontSize=9;strokeColor=#d6b656;" vertex="1" parent="lni71YWlgwytNNIKN3gq-65">
          <mxGeometry x="100" y="-20" width="20" height="20" as="geometry" />
        </mxCell>
        <mxCell id="_ffZxEVP9vw5_LnrRt1j-17" value="729" style="whiteSpace=wrap;html=1;aspect=fixed;fillColor=#fff2cc;fontSize=9;strokeColor=#d6b656;" vertex="1" parent="lni71YWlgwytNNIKN3gq-65">
          <mxGeometry x="-28" y="380" width="20" height="20" as="geometry" />
        </mxCell>
        <mxCell id="_ffZxEVP9vw5_LnrRt1j-19" value="1161" style="whiteSpace=wrap;html=1;aspect=fixed;fontSize=9;fillColor=#fad7ac;strokeColor=#b46504;" vertex="1" parent="lni71YWlgwytNNIKN3gq-65">
          <mxGeometry x="-30" y="-10" width="20" height="20" as="geometry" />
        </mxCell>
        <mxCell id="_ffZxEVP9vw5_LnrRt1j-22" value="1163" style="whiteSpace=wrap;html=1;aspect=fixed;fillColor=#fad7ac;strokeColor=#b46504;fontSize=9;" vertex="1" parent="lni71YWlgwytNNIKN3gq-65">
          <mxGeometry x="50" y="70" width="20" height="20" as="geometry" />
        </mxCell>
        <mxCell id="_ffZxEVP9vw5_LnrRt1j-25" value="1164" style="whiteSpace=wrap;html=1;aspect=fixed;fillColor=#fad7ac;strokeColor=#b46504;fontSize=9;" vertex="1" parent="lni71YWlgwytNNIKN3gq-65">
          <mxGeometry x="130" y="70" width="20" height="20" as="geometry" />
        </mxCell>
        <mxCell id="_ffZxEVP9vw5_LnrRt1j-26" value="1165" style="whiteSpace=wrap;html=1;aspect=fixed;fillColor=#fad7ac;strokeColor=#b46504;fontSize=9;" vertex="1" parent="lni71YWlgwytNNIKN3gq-65">
          <mxGeometry x="210" y="70" width="20" height="20" as="geometry" />
        </mxCell>
        <mxCell id="_ffZxEVP9vw5_LnrRt1j-27" value="1166" style="whiteSpace=wrap;html=1;aspect=fixed;fillColor=#fad7ac;strokeColor=#b46504;fontSize=9;" vertex="1" parent="lni71YWlgwytNNIKN3gq-65">
          <mxGeometry x="290" y="70" width="20" height="20" as="geometry" />
        </mxCell>
        <mxCell id="_ffZxEVP9vw5_LnrRt1j-28" value="1167" style="whiteSpace=wrap;html=1;aspect=fixed;fillColor=#fad7ac;strokeColor=#b46504;fontSize=9;" vertex="1" parent="lni71YWlgwytNNIKN3gq-65">
          <mxGeometry x="339" y="95" width="20" height="20" as="geometry" />
        </mxCell>
        <mxCell id="_ffZxEVP9vw5_LnrRt1j-29" value="1168" style="whiteSpace=wrap;html=1;aspect=fixed;fillColor=#fad7ac;strokeColor=#b46504;fontSize=9;" vertex="1" parent="lni71YWlgwytNNIKN3gq-65">
          <mxGeometry x="377" y="135" width="20" height="20" as="geometry" />
        </mxCell>
        <mxCell id="_ffZxEVP9vw5_LnrRt1j-30" value="1169" style="whiteSpace=wrap;html=1;aspect=fixed;fillColor=#fad7ac;strokeColor=#b46504;fontSize=9;" vertex="1" parent="lni71YWlgwytNNIKN3gq-65">
          <mxGeometry x="419" y="175" width="20" height="20" as="geometry" />
        </mxCell>
        <mxCell id="_ffZxEVP9vw5_LnrRt1j-31" value="1170" style="whiteSpace=wrap;html=1;aspect=fixed;fillColor=#fad7ac;strokeColor=#b46504;fontSize=9;" vertex="1" parent="lni71YWlgwytNNIKN3gq-65">
          <mxGeometry x="455" y="215" width="20" height="20" as="geometry" />
        </mxCell>
        <mxCell id="_ffZxEVP9vw5_LnrRt1j-32" value="1171" style="whiteSpace=wrap;html=1;aspect=fixed;fillColor=#fad7ac;strokeColor=#b46504;fontSize=9;" vertex="1" parent="lni71YWlgwytNNIKN3gq-65">
          <mxGeometry x="457" y="255" width="20" height="20" as="geometry" />
        </mxCell>
        <mxCell id="_ffZxEVP9vw5_LnrRt1j-33" value="1172" style="whiteSpace=wrap;html=1;aspect=fixed;fillColor=#fad7ac;strokeColor=#b46504;fontSize=9;" vertex="1" parent="lni71YWlgwytNNIKN3gq-65">
          <mxGeometry x="457" y="295" width="20" height="20" as="geometry" />
        </mxCell>
        <mxCell id="_ffZxEVP9vw5_LnrRt1j-36" value="1173" style="whiteSpace=wrap;html=1;aspect=fixed;fillColor=#fad7ac;strokeColor=#b46504;fontSize=9;" vertex="1" parent="lni71YWlgwytNNIKN3gq-65">
          <mxGeometry x="457" y="335" width="20" height="20" as="geometry" />
        </mxCell>
        <mxCell id="_ffZxEVP9vw5_LnrRt1j-37" value="1174" style="whiteSpace=wrap;html=1;aspect=fixed;fillColor=#fad7ac;strokeColor=#b46504;fontSize=9;" vertex="1" parent="lni71YWlgwytNNIKN3gq-65">
          <mxGeometry x="457" y="375" width="20" height="20" as="geometry" />
        </mxCell>
        <mxCell id="_ffZxEVP9vw5_LnrRt1j-40" value="1175" style="whiteSpace=wrap;html=1;aspect=fixed;fillColor=#fad7ac;strokeColor=#b46504;fontSize=9;" vertex="1" parent="lni71YWlgwytNNIKN3gq-65">
          <mxGeometry x="498" y="415" width="20" height="20" as="geometry" />
        </mxCell>
        <mxCell id="_ffZxEVP9vw5_LnrRt1j-41" value="1176" style="whiteSpace=wrap;html=1;aspect=fixed;fillColor=#fad7ac;strokeColor=#b46504;fontSize=9;" vertex="1" parent="lni71YWlgwytNNIKN3gq-65">
          <mxGeometry x="537" y="456" width="20" height="20" as="geometry" />
        </mxCell>
        <mxCell id="_ffZxEVP9vw5_LnrRt1j-42" value="1140" style="whiteSpace=wrap;html=1;aspect=fixed;fillColor=#d5e8d4;gradientColor=none;strokeColor=#82b366;fontSize=9;" vertex="1" parent="lni71YWlgwytNNIKN3gq-65">
          <mxGeometry x="-50" y="10" width="20" height="20" as="geometry" />
        </mxCell>
        <mxCell id="_ffZxEVP9vw5_LnrRt1j-43" value="1142" style="whiteSpace=wrap;html=1;aspect=fixed;fillColor=#d5e8d4;gradientColor=none;strokeColor=#82b366;fontSize=9;" vertex="1" parent="lni71YWlgwytNNIKN3gq-65">
          <mxGeometry x="-50" y="90" width="20" height="20" as="geometry" />
        </mxCell>
        <mxCell id="_ffZxEVP9vw5_LnrRt1j-44" value="1142" style="whiteSpace=wrap;html=1;aspect=fixed;fillColor=#d5e8d4;gradientColor=none;strokeColor=#82b366;fontSize=9;" vertex="1" parent="lni71YWlgwytNNIKN3gq-65">
          <mxGeometry x="-23" y="135" width="20" height="20" as="geometry" />
        </mxCell>
        <mxCell id="_ffZxEVP9vw5_LnrRt1j-45" value="1143" style="whiteSpace=wrap;html=1;aspect=fixed;fillColor=#d5e8d4;gradientColor=none;strokeColor=#82b366;fontSize=9;" vertex="1" parent="lni71YWlgwytNNIKN3gq-65">
          <mxGeometry x="19" y="175" width="20" height="20" as="geometry" />
        </mxCell>
        <mxCell id="_ffZxEVP9vw5_LnrRt1j-46" value="1144" style="whiteSpace=wrap;html=1;aspect=fixed;fillColor=#d5e8d4;gradientColor=none;strokeColor=#82b366;fontSize=9;" vertex="1" parent="lni71YWlgwytNNIKN3gq-65">
          <mxGeometry x="30" y="250" width="20" height="20" as="geometry" />
        </mxCell>
        <mxCell id="_ffZxEVP9vw5_LnrRt1j-47" value="1145" style="whiteSpace=wrap;html=1;aspect=fixed;fillColor=#d5e8d4;gradientColor=none;strokeColor=#82b366;fontSize=9;" vertex="1" parent="lni71YWlgwytNNIKN3gq-65">
          <mxGeometry x="30" y="330" width="20" height="20" as="geometry" />
        </mxCell>
        <mxCell id="_ffZxEVP9vw5_LnrRt1j-48" value="1146" style="whiteSpace=wrap;html=1;aspect=fixed;fillColor=#d5e8d4;gradientColor=none;strokeColor=#82b366;fontSize=9;" vertex="1" parent="lni71YWlgwytNNIKN3gq-65">
          <mxGeometry x="30" y="410" width="20" height="20" as="geometry" />
        </mxCell>
        <mxCell id="_ffZxEVP9vw5_LnrRt1j-49" value="1147" style="whiteSpace=wrap;html=1;aspect=fixed;fillColor=#d5e8d4;gradientColor=none;strokeColor=#82b366;fontSize=9;" vertex="1" parent="lni71YWlgwytNNIKN3gq-65">
          <mxGeometry x="57" y="456" width="20" height="20" as="geometry" />
        </mxCell>
        <mxCell id="_ffZxEVP9vw5_LnrRt1j-50" value="1124" style="whiteSpace=wrap;html=1;aspect=fixed;fillColor=#dae8fc;gradientColor=none;strokeColor=#6c8ebf;fontSize=9;" vertex="1" parent="lni71YWlgwytNNIKN3gq-65">
          <mxGeometry x="590" y="90" width="20" height="20" as="geometry" />
        </mxCell>
        <mxCell id="_ffZxEVP9vw5_LnrRt1j-51" value="1125" style="whiteSpace=wrap;html=1;aspect=fixed;fillColor=#dae8fc;gradientColor=none;strokeColor=#6c8ebf;fontSize=9;" vertex="1" parent="lni71YWlgwytNNIKN3gq-65">
          <mxGeometry x="590" y="170" width="20" height="20" as="geometry" />
        </mxCell>
        <mxCell id="_ffZxEVP9vw5_LnrRt1j-52" value="1126" style="whiteSpace=wrap;html=1;aspect=fixed;fillColor=#dae8fc;gradientColor=none;strokeColor=#6c8ebf;fontSize=9;" vertex="1" parent="lni71YWlgwytNNIKN3gq-65">
          <mxGeometry x="590" y="250" width="20" height="20" as="geometry" />
        </mxCell>
        <mxCell id="_ffZxEVP9vw5_LnrRt1j-53" value="1127" style="whiteSpace=wrap;html=1;aspect=fixed;fillColor=#dae8fc;gradientColor=none;strokeColor=#6c8ebf;fontSize=9;" vertex="1" parent="lni71YWlgwytNNIKN3gq-65">
          <mxGeometry x="561" y="375" width="20" height="20" as="geometry" />
        </mxCell>
        <mxCell id="_ffZxEVP9vw5_LnrRt1j-54" value="1128" style="whiteSpace=wrap;html=1;aspect=fixed;fillColor=#dae8fc;gradientColor=none;strokeColor=#6c8ebf;fontSize=9;" vertex="1" parent="lni71YWlgwytNNIKN3gq-65">
          <mxGeometry x="576" y="415" width="20" height="20" as="geometry" />
        </mxCell>
        <mxCell id="_ffZxEVP9vw5_LnrRt1j-55" value="1122" style="whiteSpace=wrap;html=1;aspect=fixed;fillColor=#dae8fc;gradientColor=none;strokeColor=#6c8ebf;fontSize=9;" vertex="1" parent="lni71YWlgwytNNIKN3gq-65">
          <mxGeometry x="563" y="5" width="20" height="20" as="geometry" />
        </mxCell>
        <mxCell id="_ffZxEVP9vw5_LnrRt1j-56" value="1121" style="whiteSpace=wrap;html=1;aspect=fixed;fillColor=#dae8fc;gradientColor=none;strokeColor=#6c8ebf;fontSize=9;" vertex="1" parent="lni71YWlgwytNNIKN3gq-65">
          <mxGeometry x="563" y="-35" width="20" height="20" as="geometry" />
        </mxCell>
        <mxCell id="_ffZxEVP9vw5_LnrRt1j-57" value="1120" style="whiteSpace=wrap;html=1;aspect=fixed;fillColor=#dae8fc;gradientColor=none;strokeColor=#6c8ebf;fontSize=9;" vertex="1" parent="lni71YWlgwytNNIKN3gq-65">
          <mxGeometry x="563" y="-76" width="20" height="20" as="geometry" />
        </mxCell>
        <mxCell id="_ffZxEVP9vw5_LnrRt1j-63" value="713" style="whiteSpace=wrap;html=1;aspect=fixed;fillColor=#fff2cc;fontSize=9;strokeColor=#d6b656;" vertex="1" parent="lni71YWlgwytNNIKN3gq-65">
          <mxGeometry x="100" y="330" width="20" height="20" as="geometry" />
        </mxCell>
        <mxCell id="_ffZxEVP9vw5_LnrRt1j-64" value="523" style="whiteSpace=wrap;html=1;aspect=fixed;fillColor=#fff2cc;fontSize=9;strokeColor=#d6b656;" vertex="1" parent="lni71YWlgwytNNIKN3gq-65">
          <mxGeometry x="98" y="-68" width="20" height="20" as="geometry" />
        </mxCell>
        <mxCell id="_ffZxEVP9vw5_LnrRt1j-65" value="529" style="whiteSpace=wrap;html=1;aspect=fixed;fillColor=#fff2cc;fontSize=9;strokeColor=#d6b656;" vertex="1" parent="lni71YWlgwytNNIKN3gq-65">
          <mxGeometry x="339" y="-68" width="20" height="20" as="geometry" />
        </mxCell>
        <mxCell id="_ffZxEVP9vw5_LnrRt1j-66" value="537" style="whiteSpace=wrap;html=1;aspect=fixed;fillColor=#fff2cc;fontSize=9;strokeColor=#d6b656;" vertex="1" parent="lni71YWlgwytNNIKN3gq-65">
          <mxGeometry x="659" y="-68" width="20" height="20" as="geometry" />
        </mxCell>
        <mxCell id="_ffZxEVP9vw5_LnrRt1j-68" value="541" style="whiteSpace=wrap;html=1;aspect=fixed;fillColor=#fff2cc;fontSize=9;strokeColor=#d6b656;" vertex="1" parent="lni71YWlgwytNNIKN3gq-65">
          <mxGeometry x="52" y="-20" width="20" height="20" as="geometry" />
        </mxCell>
        <mxCell id="_ffZxEVP9vw5_LnrRt1j-69" value="561" style="whiteSpace=wrap;html=1;aspect=fixed;fillColor=#fff2cc;fontSize=9;strokeColor=#d6b656;" vertex="1" parent="lni71YWlgwytNNIKN3gq-65">
          <mxGeometry x="99" y="12" width="20" height="20" as="geometry" />
        </mxCell>
        <mxCell id="_ffZxEVP9vw5_LnrRt1j-70" value="543" style="whiteSpace=wrap;html=1;aspect=fixed;fillColor=#fff2cc;fontSize=9;strokeColor=#d6b656;" vertex="1" parent="lni71YWlgwytNNIKN3gq-65">
          <mxGeometry x="132" y="-20" width="20" height="20" as="geometry" />
        </mxCell>
        <mxCell id="_ffZxEVP9vw5_LnrRt1j-72" value="545" style="whiteSpace=wrap;html=1;aspect=fixed;fillColor=#fff2cc;fontSize=9;strokeColor=#d6b656;" vertex="1" parent="lni71YWlgwytNNIKN3gq-65">
          <mxGeometry x="212" y="-20" width="20" height="20" as="geometry" />
        </mxCell>
        <mxCell id="_ffZxEVP9vw5_LnrRt1j-73" value="547" style="whiteSpace=wrap;html=1;aspect=fixed;fillColor=#fff2cc;fontSize=9;strokeColor=#d6b656;" vertex="1" parent="lni71YWlgwytNNIKN3gq-65">
          <mxGeometry x="292" y="-20" width="20" height="20" as="geometry" />
        </mxCell>
        <mxCell id="_ffZxEVP9vw5_LnrRt1j-75" value="549" style="whiteSpace=wrap;html=1;aspect=fixed;fillColor=#fff2cc;fontSize=9;strokeColor=#d6b656;" vertex="1" parent="lni71YWlgwytNNIKN3gq-65">
          <mxGeometry x="372" y="-20" width="20" height="20" as="geometry" />
        </mxCell>
        <mxCell id="_ffZxEVP9vw5_LnrRt1j-76" value="567" style="whiteSpace=wrap;html=1;aspect=fixed;fillColor=#fff2cc;fontSize=9;strokeColor=#d6b656;" vertex="1" parent="lni71YWlgwytNNIKN3gq-65">
          <mxGeometry x="340" y="12" width="20" height="20" as="geometry" />
        </mxCell>
        <mxCell id="_ffZxEVP9vw5_LnrRt1j-77" value="551" style="whiteSpace=wrap;html=1;aspect=fixed;fillColor=#fff2cc;fontSize=9;strokeColor=#d6b656;" vertex="1" parent="lni71YWlgwytNNIKN3gq-65">
          <mxGeometry x="452" y="-20" width="20" height="20" as="geometry" />
        </mxCell>
        <mxCell id="_ffZxEVP9vw5_LnrRt1j-78" value="553" style="whiteSpace=wrap;html=1;aspect=fixed;fillColor=#fff2cc;fontSize=9;strokeColor=#d6b656;" vertex="1" parent="lni71YWlgwytNNIKN3gq-65">
          <mxGeometry x="532" y="-20" width="20" height="20" as="geometry" />
        </mxCell>
        <mxCell id="_ffZxEVP9vw5_LnrRt1j-80" value="555" style="whiteSpace=wrap;html=1;aspect=fixed;fillColor=#fff2cc;fontSize=9;strokeColor=#d6b656;" vertex="1" parent="lni71YWlgwytNNIKN3gq-65">
          <mxGeometry x="612" y="-21" width="20" height="20" as="geometry" />
        </mxCell>
        <mxCell id="_ffZxEVP9vw5_LnrRt1j-81" value="575" style="whiteSpace=wrap;html=1;aspect=fixed;fillColor=#fff2cc;fontSize=9;strokeColor=#d6b656;" vertex="1" parent="lni71YWlgwytNNIKN3gq-65">
          <mxGeometry x="660" y="12" width="20" height="20" as="geometry" />
        </mxCell>
        <mxCell id="_ffZxEVP9vw5_LnrRt1j-82" value="599" style="whiteSpace=wrap;html=1;aspect=fixed;fillColor=#fff2cc;fontSize=9;strokeColor=#d6b656;" vertex="1" parent="lni71YWlgwytNNIKN3gq-65">
          <mxGeometry x="98" y="92" width="20" height="20" as="geometry" />
        </mxCell>
        <mxCell id="_ffZxEVP9vw5_LnrRt1j-83" value="605" style="whiteSpace=wrap;html=1;aspect=fixed;fillColor=#fff2cc;fontSize=9;strokeColor=#d6b656;" vertex="1" parent="lni71YWlgwytNNIKN3gq-65">
          <mxGeometry x="340" y="130" width="20" height="20" as="geometry" />
        </mxCell>
        <mxCell id="_ffZxEVP9vw5_LnrRt1j-84" value="613" style="whiteSpace=wrap;html=1;aspect=fixed;fillColor=#fff2cc;fontSize=9;strokeColor=#d6b656;" vertex="1" parent="lni71YWlgwytNNIKN3gq-65">
          <mxGeometry x="660" y="92" width="20" height="20" as="geometry" />
        </mxCell>
        <mxCell id="_ffZxEVP9vw5_LnrRt1j-86" value="637" style="whiteSpace=wrap;html=1;aspect=fixed;fillColor=#fff2cc;fontSize=9;strokeColor=#d6b656;" vertex="1" parent="lni71YWlgwytNNIKN3gq-65">
          <mxGeometry x="100" y="171" width="20" height="20" as="geometry" />
        </mxCell>
        <mxCell id="_ffZxEVP9vw5_LnrRt1j-88" value="643" style="whiteSpace=wrap;html=1;aspect=fixed;fillColor=#fff2cc;fontSize=9;strokeColor=#d6b656;" vertex="1" parent="lni71YWlgwytNNIKN3gq-65">
          <mxGeometry x="339" y="172" width="20" height="20" as="geometry" />
        </mxCell>
        <mxCell id="_ffZxEVP9vw5_LnrRt1j-89" value="651" style="whiteSpace=wrap;html=1;aspect=fixed;fillColor=#fff2cc;fontSize=9;strokeColor=#d6b656;" vertex="1" parent="lni71YWlgwytNNIKN3gq-65">
          <mxGeometry x="660" y="172" width="20" height="20" as="geometry" />
        </mxCell>
        <mxCell id="_ffZxEVP9vw5_LnrRt1j-90" value="675" style="whiteSpace=wrap;html=1;aspect=fixed;fillColor=#fff2cc;fontSize=9;strokeColor=#d6b656;" vertex="1" parent="lni71YWlgwytNNIKN3gq-65">
          <mxGeometry x="100" y="252" width="20" height="20" as="geometry" />
        </mxCell>
        <mxCell id="_ffZxEVP9vw5_LnrRt1j-91" value="681" style="whiteSpace=wrap;html=1;aspect=fixed;fillColor=#fff2cc;fontSize=9;strokeColor=#d6b656;" vertex="1" parent="lni71YWlgwytNNIKN3gq-65">
          <mxGeometry x="339" y="252" width="20" height="20" as="geometry" />
        </mxCell>
        <mxCell id="_ffZxEVP9vw5_LnrRt1j-92" value="689" style="whiteSpace=wrap;html=1;aspect=fixed;fillColor=#fff2cc;fontSize=9;strokeColor=#d6b656;" vertex="1" parent="lni71YWlgwytNNIKN3gq-65">
          <mxGeometry x="660" y="252" width="20" height="20" as="geometry" />
        </mxCell>
        <mxCell id="_ffZxEVP9vw5_LnrRt1j-93" value="719" style="whiteSpace=wrap;html=1;aspect=fixed;fillColor=#fff2cc;fontSize=9;strokeColor=#d6b656;" vertex="1" parent="lni71YWlgwytNNIKN3gq-65">
          <mxGeometry x="339" y="332" width="20" height="20" as="geometry" />
        </mxCell>
        <mxCell id="_ffZxEVP9vw5_LnrRt1j-94" value="727" style="whiteSpace=wrap;html=1;aspect=fixed;fillColor=#fff2cc;fontSize=9;strokeColor=#d6b656;" vertex="1" parent="lni71YWlgwytNNIKN3gq-65">
          <mxGeometry x="660" y="332" width="20" height="20" as="geometry" />
        </mxCell>
        <mxCell id="_ffZxEVP9vw5_LnrRt1j-96" value="737" style="whiteSpace=wrap;html=1;aspect=fixed;fillColor=#fff2cc;fontSize=9;strokeColor=#d6b656;" vertex="1" parent="lni71YWlgwytNNIKN3gq-65">
          <mxGeometry x="292" y="380" width="20" height="20" as="geometry" />
        </mxCell>
        <mxCell id="_ffZxEVP9vw5_LnrRt1j-97" value="757" style="whiteSpace=wrap;html=1;aspect=fixed;fillColor=#fff2cc;fontSize=9;strokeColor=#d6b656;" vertex="1" parent="lni71YWlgwytNNIKN3gq-65">
          <mxGeometry x="340" y="412" width="20" height="20" as="geometry" />
        </mxCell>
        <mxCell id="_ffZxEVP9vw5_LnrRt1j-98" value="765" style="whiteSpace=wrap;html=1;aspect=fixed;fillColor=#fff2cc;fontSize=9;strokeColor=#d6b656;" vertex="1" parent="lni71YWlgwytNNIKN3gq-65">
          <mxGeometry x="660" y="412" width="20" height="20" as="geometry" />
        </mxCell>
        <mxCell id="_ffZxEVP9vw5_LnrRt1j-99" value="739" style="whiteSpace=wrap;html=1;aspect=fixed;fillColor=#fff2cc;fontSize=9;strokeColor=#d6b656;" vertex="1" parent="lni71YWlgwytNNIKN3gq-65">
          <mxGeometry x="372" y="380" width="20" height="20" as="geometry" />
        </mxCell>
        <mxCell id="_ffZxEVP9vw5_LnrRt1j-100" value="735" style="whiteSpace=wrap;html=1;aspect=fixed;fillColor=#fff2cc;fontSize=9;strokeColor=#d6b656;" vertex="1" parent="lni71YWlgwytNNIKN3gq-65">
          <mxGeometry x="212" y="380" width="20" height="20" as="geometry" />
        </mxCell>
        <mxCell id="_ffZxEVP9vw5_LnrRt1j-101" value="733" style="whiteSpace=wrap;html=1;aspect=fixed;fillColor=#fff2cc;fontSize=9;strokeColor=#d6b656;" vertex="1" parent="lni71YWlgwytNNIKN3gq-65">
          <mxGeometry x="132" y="380" width="20" height="20" as="geometry" />
        </mxCell>
        <mxCell id="_ffZxEVP9vw5_LnrRt1j-102" value="751" style="whiteSpace=wrap;html=1;aspect=fixed;fillColor=#fff2cc;fontSize=9;strokeColor=#d6b656;" vertex="1" parent="lni71YWlgwytNNIKN3gq-65">
          <mxGeometry x="99" y="412" width="20" height="20" as="geometry" />
        </mxCell>
        <mxCell id="_ffZxEVP9vw5_LnrRt1j-103" value="731" style="whiteSpace=wrap;html=1;aspect=fixed;fillColor=#fff2cc;fontSize=9;strokeColor=#d6b656;" vertex="1" parent="lni71YWlgwytNNIKN3gq-65">
          <mxGeometry x="52" y="380" width="20" height="20" as="geometry" />
        </mxCell>
        <mxCell id="_ffZxEVP9vw5_LnrRt1j-104" value="743" style="whiteSpace=wrap;html=1;aspect=fixed;fillColor=#fff2cc;fontSize=9;strokeColor=#d6b656;" vertex="1" parent="lni71YWlgwytNNIKN3gq-65">
          <mxGeometry x="532" y="380" width="20" height="20" as="geometry" />
        </mxCell>
        <mxCell id="_ffZxEVP9vw5_LnrRt1j-105" value="741" style="whiteSpace=wrap;html=1;aspect=fixed;fillColor=#fff2cc;fontSize=9;strokeColor=#d6b656;" vertex="1" parent="lni71YWlgwytNNIKN3gq-65">
          <mxGeometry x="452" y="390" width="20" height="20" as="geometry" />
        </mxCell>
        <mxCell id="_ffZxEVP9vw5_LnrRt1j-106" value="1187" style="whiteSpace=wrap;html=1;aspect=fixed;fillColor=#fff2cc;fontSize=9;strokeColor=#d6b656;" vertex="1" parent="lni71YWlgwytNNIKN3gq-65">
          <mxGeometry x="659" y="379" width="20" height="20" as="geometry" />
        </mxCell>
        <mxCell id="_ffZxEVP9vw5_LnrRt1j-109" value="1105" style="whiteSpace=wrap;html=1;aspect=fixed;fillColor=#b0e3e6;fontSize=9;strokeColor=#0e8088;" vertex="1" parent="lni71YWlgwytNNIKN3gq-65">
          <mxGeometry x="-90" y="-100" width="20" height="20" as="geometry" />
        </mxCell>
        <mxCell id="_ffZxEVP9vw5_LnrRt1j-110" value="1105" style="whiteSpace=wrap;html=1;aspect=fixed;fillColor=#b0e3e6;fontSize=9;strokeColor=#0e8088;" vertex="1" parent="lni71YWlgwytNNIKN3gq-65">
          <mxGeometry x="629" y="550" width="20" height="20" as="geometry" />
        </mxCell>
        <mxCell id="_ffZxEVP9vw5_LnrRt1j-111" value="1123" style="whiteSpace=wrap;html=1;aspect=fixed;fillColor=#dae8fc;gradientColor=none;strokeColor=#6c8ebf;fontSize=9;" vertex="1" parent="lni71YWlgwytNNIKN3gq-65">
          <mxGeometry x="563" y="45" width="20" height="20" as="geometry" />
        </mxCell>
        <mxCell id="_ffZxEVP9vw5_LnrRt1j-112" value="1160" style="whiteSpace=wrap;html=1;aspect=fixed;fontSize=9;fillColor=#fad7ac;strokeColor=#b46504;" vertex="1" parent="lni71YWlgwytNNIKN3gq-65">
          <mxGeometry x="-50" y="-70" width="20" height="20" as="geometry" />
        </mxCell>
        <mxCell id="_ffZxEVP9vw5_LnrRt1j-113" value="1162" style="whiteSpace=wrap;html=1;aspect=fixed;fillColor=#fad7ac;strokeColor=#b46504;fontSize=9;" vertex="1" parent="lni71YWlgwytNNIKN3gq-65">
          <mxGeometry x="19" y="10" width="20" height="20" as="geometry" />
        </mxCell>
        <mxCell id="_ffZxEVP9vw5_LnrRt1j-114" value="1002" style="whiteSpace=wrap;html=1;aspect=fixed;fillColor=default;fontSize=9;" vertex="1" parent="lni71YWlgwytNNIKN3gq-65">
          <mxGeometry x="190" y="290" width="20" height="20" as="geometry" />
        </mxCell>
        <mxCell id="_ffZxEVP9vw5_LnrRt1j-116" value="1001" style="whiteSpace=wrap;html=1;aspect=fixed;fillColor=default;fontSize=9;" vertex="1" parent="lni71YWlgwytNNIKN3gq-65">
          <mxGeometry x="200" y="325" width="20" height="20" as="geometry" />
        </mxCell>
        <mxCell id="_ffZxEVP9vw5_LnrRt1j-117" value="&lt;font style=&quot;font-size: 9px;&quot;&gt;1000&lt;/font&gt;" style="whiteSpace=wrap;html=1;aspect=fixed;fillColor=#f8cecc;strokeColor=#b85450;" vertex="1" parent="lni71YWlgwytNNIKN3gq-65">
          <mxGeometry x="190" y="310" width="20" height="20" as="geometry" />
        </mxCell>
        <mxCell id="lni71YWlgwytNNIKN3gq-293" value="265" style="whiteSpace=wrap;html=1;aspect=fixed;fillColor=default;fontSize=9;" parent="lni71YWlgwytNNIKN3gq-65" vertex="1">
          <mxGeometry x="670" y="430" width="20" height="20" as="geometry" />
        </mxCell>
        <mxCell id="lni71YWlgwytNNIKN3gq-294" value="227" style="whiteSpace=wrap;html=1;aspect=fixed;fillColor=default;fontSize=9;" parent="lni71YWlgwytNNIKN3gq-65" vertex="1">
          <mxGeometry x="670" y="350" width="20" height="20" as="geometry" />
        </mxCell>
        <mxCell id="lni71YWlgwytNNIKN3gq-295" value="189" style="whiteSpace=wrap;html=1;aspect=fixed;fillColor=default;fontSize=9;" parent="lni71YWlgwytNNIKN3gq-65" vertex="1">
          <mxGeometry x="670" y="270" width="20" height="20" as="geometry" />
        </mxCell>
        <mxCell id="lni71YWlgwytNNIKN3gq-296" value="151" style="whiteSpace=wrap;html=1;aspect=fixed;fillColor=default;fontSize=9;" parent="lni71YWlgwytNNIKN3gq-65" vertex="1">
          <mxGeometry x="670" y="190" width="20" height="20" as="geometry" />
        </mxCell>
        <mxCell id="lni71YWlgwytNNIKN3gq-297" value="113" style="whiteSpace=wrap;html=1;aspect=fixed;fillColor=default;fontSize=9;" parent="lni71YWlgwytNNIKN3gq-65" vertex="1">
          <mxGeometry x="670" y="110" width="20" height="20" as="geometry" />
        </mxCell>
        <mxCell id="lni71YWlgwytNNIKN3gq-298" value="75" style="whiteSpace=wrap;html=1;aspect=fixed;fillColor=default;fontSize=9;" parent="lni71YWlgwytNNIKN3gq-65" vertex="1">
          <mxGeometry x="670" y="30" width="20" height="20" as="geometry" />
        </mxCell>
        <mxCell id="lni71YWlgwytNNIKN3gq-299" value="37" style="whiteSpace=wrap;html=1;aspect=fixed;fillColor=default;fontSize=9;" parent="lni71YWlgwytNNIKN3gq-65" vertex="1">
          <mxGeometry x="670" y="-50" width="20" height="20" as="geometry" />
        </mxCell>
        <mxCell id="lni71YWlgwytNNIKN3gq-110" value="263" style="whiteSpace=wrap;html=1;aspect=fixed;fontSize=9;" parent="lni71YWlgwytNNIKN3gq-65" vertex="1">
          <mxGeometry x="590" y="430" width="20" height="20" as="geometry" />
        </mxCell>
        <mxCell id="lni71YWlgwytNNIKN3gq-144" value="187" style="whiteSpace=wrap;html=1;aspect=fixed;fontSize=9;" parent="lni71YWlgwytNNIKN3gq-65" vertex="1">
          <mxGeometry x="590" y="270" width="20" height="20" as="geometry" />
        </mxCell>
        <mxCell id="lni71YWlgwytNNIKN3gq-161" value="149" style="whiteSpace=wrap;html=1;aspect=fixed;fontSize=9;" parent="lni71YWlgwytNNIKN3gq-65" vertex="1">
          <mxGeometry x="590" y="190" width="20" height="20" as="geometry" />
        </mxCell>
        <mxCell id="lni71YWlgwytNNIKN3gq-178" value="111" style="whiteSpace=wrap;html=1;aspect=fixed;fontSize=9;" parent="lni71YWlgwytNNIKN3gq-65" vertex="1">
          <mxGeometry x="590" y="110" width="20" height="20" as="geometry" />
        </mxCell>
        <mxCell id="lni71YWlgwytNNIKN3gq-193" value="72" style="whiteSpace=wrap;html=1;aspect=fixed;fontSize=9;" parent="lni71YWlgwytNNIKN3gq-65" vertex="1">
          <mxGeometry x="550" y="30" width="20" height="20" as="geometry" />
        </mxCell>
        <mxCell id="lni71YWlgwytNNIKN3gq-210" value="34" style="whiteSpace=wrap;html=1;aspect=fixed;fontSize=9;" parent="lni71YWlgwytNNIKN3gq-65" vertex="1">
          <mxGeometry x="550" y="-50" width="20" height="20" as="geometry" />
        </mxCell>
        <mxCell id="lni71YWlgwytNNIKN3gq-221" value="53" style="whiteSpace=wrap;html=1;aspect=fixed;fontSize=9;" parent="lni71YWlgwytNNIKN3gq-65" vertex="1">
          <mxGeometry x="550" y="-10" width="20" height="20" as="geometry" />
        </mxCell>
        <mxCell id="lni71YWlgwytNNIKN3gq-222" value="55" style="whiteSpace=wrap;html=1;aspect=fixed;fillColor=default;fontSize=9;" parent="lni71YWlgwytNNIKN3gq-65" vertex="1">
          <mxGeometry x="630" y="-10" width="20" height="20" as="geometry" />
        </mxCell>
        <mxCell id="lni71YWlgwytNNIKN3gq-266" value="243" style="whiteSpace=wrap;html=1;aspect=fixed;fontSize=9;" parent="lni71YWlgwytNNIKN3gq-65" vertex="1">
          <mxGeometry x="550" y="390" width="20" height="20" as="geometry" />
        </mxCell>
        <mxCell id="lni71YWlgwytNNIKN3gq-267" value="245" style="whiteSpace=wrap;html=1;aspect=fixed;fillColor=default;fontSize=9;" parent="lni71YWlgwytNNIKN3gq-65" vertex="1">
          <mxGeometry x="630" y="390" width="20" height="20" as="geometry" />
        </mxCell>
        <mxCell id="lni71YWlgwytNNIKN3gq-332" value="15" style="whiteSpace=wrap;html=1;aspect=fixed;fontSize=9;" parent="lni71YWlgwytNNIKN3gq-65" vertex="1">
          <mxGeometry x="550" y="-90" width="20" height="20" as="geometry" />
        </mxCell>
        <mxCell id="lni71YWlgwytNNIKN3gq-109" value="261" style="whiteSpace=wrap;html=1;aspect=fixed;fontSize=9;" parent="lni71YWlgwytNNIKN3gq-65" vertex="1">
          <mxGeometry x="510" y="430" width="20" height="20" as="geometry" />
        </mxCell>
        <mxCell id="lni71YWlgwytNNIKN3gq-124" value="222" style="whiteSpace=wrap;html=1;aspect=fixed;fontSize=9;" parent="lni71YWlgwytNNIKN3gq-65" vertex="1">
          <mxGeometry x="470" y="350" width="20" height="20" as="geometry" />
        </mxCell>
        <mxCell id="lni71YWlgwytNNIKN3gq-141" value="184" style="whiteSpace=wrap;html=1;aspect=fixed;fontSize=9;" parent="lni71YWlgwytNNIKN3gq-65" vertex="1">
          <mxGeometry x="470" y="270" width="20" height="20" as="geometry" />
        </mxCell>
        <mxCell id="lni71YWlgwytNNIKN3gq-157" value="145" style="whiteSpace=wrap;html=1;aspect=fixed;fontSize=9;" parent="lni71YWlgwytNNIKN3gq-65" vertex="1">
          <mxGeometry x="430" y="190" width="20" height="20" as="geometry" />
        </mxCell>
        <mxCell id="lni71YWlgwytNNIKN3gq-219" value="49" style="whiteSpace=wrap;html=1;aspect=fixed;fillColor=default;fontSize=9;" parent="lni71YWlgwytNNIKN3gq-65" vertex="1">
          <mxGeometry x="390" y="-10" width="20" height="20" as="geometry" />
        </mxCell>
        <mxCell id="lni71YWlgwytNNIKN3gq-220" value="51" style="whiteSpace=wrap;html=1;aspect=fixed;fillColor=default;fontSize=9;" parent="lni71YWlgwytNNIKN3gq-65" vertex="1">
          <mxGeometry x="470" y="-10" width="20" height="20" as="geometry" />
        </mxCell>
        <mxCell id="lni71YWlgwytNNIKN3gq-237" value="125" style="whiteSpace=wrap;html=1;aspect=fixed;fontSize=9;" parent="lni71YWlgwytNNIKN3gq-65" vertex="1">
          <mxGeometry x="390" y="150" width="20" height="20" as="geometry" />
        </mxCell>
        <mxCell id="lni71YWlgwytNNIKN3gq-247" value="165" style="whiteSpace=wrap;html=1;aspect=fixed;fontSize=9;" parent="lni71YWlgwytNNIKN3gq-65" vertex="1">
          <mxGeometry x="470" y="230" width="20" height="20" as="geometry" />
        </mxCell>
        <mxCell id="lni71YWlgwytNNIKN3gq-256" value="203" style="whiteSpace=wrap;html=1;aspect=fixed;fontSize=9;" parent="lni71YWlgwytNNIKN3gq-65" vertex="1">
          <mxGeometry x="470" y="310" width="20" height="20" as="geometry" />
        </mxCell>
        <mxCell id="lni71YWlgwytNNIKN3gq-264" value="239" style="whiteSpace=wrap;html=1;aspect=fixed;fillColor=default;fontSize=9;" parent="lni71YWlgwytNNIKN3gq-65" vertex="1">
          <mxGeometry x="390" y="390" width="20" height="20" as="geometry" />
        </mxCell>
        <mxCell id="lni71YWlgwytNNIKN3gq-265" value="241" style="whiteSpace=wrap;html=1;aspect=fixed;fontSize=9;" parent="lni71YWlgwytNNIKN3gq-65" vertex="1">
          <mxGeometry x="470" y="390" width="20" height="20" as="geometry" />
        </mxCell>
        <mxCell id="lni71YWlgwytNNIKN3gq-275" value="281" style="whiteSpace=wrap;html=1;aspect=fixed;fontSize=9;" parent="lni71YWlgwytNNIKN3gq-65" vertex="1">
          <mxGeometry x="550" y="470" width="20" height="20" as="geometry" />
        </mxCell>
        <mxCell id="lni71YWlgwytNNIKN3gq-105" value="257" style="whiteSpace=wrap;html=1;aspect=fixed;fillColor=default;fontSize=9;" parent="lni71YWlgwytNNIKN3gq-65" vertex="1">
          <mxGeometry x="350" y="430" width="20" height="20" as="geometry" />
        </mxCell>
        <mxCell id="lni71YWlgwytNNIKN3gq-122" value="219" style="whiteSpace=wrap;html=1;aspect=fixed;fillColor=default;fontSize=9;" parent="lni71YWlgwytNNIKN3gq-65" vertex="1">
          <mxGeometry x="350" y="350" width="20" height="20" as="geometry" />
        </mxCell>
        <mxCell id="lni71YWlgwytNNIKN3gq-139" value="181" style="whiteSpace=wrap;html=1;aspect=fixed;fillColor=default;fontSize=9;" parent="lni71YWlgwytNNIKN3gq-65" vertex="1">
          <mxGeometry x="350" y="270" width="20" height="20" as="geometry" />
        </mxCell>
        <mxCell id="lni71YWlgwytNNIKN3gq-156" value="143" style="whiteSpace=wrap;html=1;aspect=fixed;fillColor=default;fontSize=9;" parent="lni71YWlgwytNNIKN3gq-65" vertex="1">
          <mxGeometry x="350" y="190" width="20" height="20" as="geometry" />
        </mxCell>
        <mxCell id="lni71YWlgwytNNIKN3gq-173" value="105" style="whiteSpace=wrap;html=1;aspect=fixed;fontSize=9;" parent="lni71YWlgwytNNIKN3gq-65" vertex="1">
          <mxGeometry x="350" y="110" width="20" height="20" as="geometry" />
        </mxCell>
        <mxCell id="lni71YWlgwytNNIKN3gq-190" value="67" style="whiteSpace=wrap;html=1;aspect=fixed;fillColor=default;fontSize=9;" parent="lni71YWlgwytNNIKN3gq-65" vertex="1">
          <mxGeometry x="350" y="30" width="20" height="20" as="geometry" />
        </mxCell>
        <mxCell id="lni71YWlgwytNNIKN3gq-207" value="29" style="whiteSpace=wrap;html=1;aspect=fixed;fillColor=default;fontSize=9;" parent="lni71YWlgwytNNIKN3gq-65" vertex="1">
          <mxGeometry x="350" y="-50" width="20" height="20" as="geometry" />
        </mxCell>
        <mxCell id="lni71YWlgwytNNIKN3gq-218" value="47" style="whiteSpace=wrap;html=1;aspect=fixed;fillColor=default;fontSize=9;" parent="lni71YWlgwytNNIKN3gq-65" vertex="1">
          <mxGeometry x="310" y="-10" width="20" height="20" as="geometry" />
        </mxCell>
        <mxCell id="lni71YWlgwytNNIKN3gq-263" value="237" style="whiteSpace=wrap;html=1;aspect=fixed;fillColor=default;fontSize=9;" parent="lni71YWlgwytNNIKN3gq-65" vertex="1">
          <mxGeometry x="310" y="390" width="20" height="20" as="geometry" />
        </mxCell>
        <mxCell id="lni71YWlgwytNNIKN3gq-98" value="251" style="whiteSpace=wrap;html=1;aspect=fixed;fillColor=default;fontSize=9;" parent="lni71YWlgwytNNIKN3gq-65" vertex="1">
          <mxGeometry x="110" y="430" width="20" height="20" as="geometry" />
        </mxCell>
        <mxCell id="lni71YWlgwytNNIKN3gq-132" value="175" style="whiteSpace=wrap;html=1;aspect=fixed;fillColor=default;fontSize=9;" parent="lni71YWlgwytNNIKN3gq-65" vertex="1">
          <mxGeometry x="110" y="270" width="20" height="20" as="geometry" />
        </mxCell>
        <mxCell id="lni71YWlgwytNNIKN3gq-149" value="137" style="whiteSpace=wrap;html=1;aspect=fixed;fillColor=default;fontSize=9;" parent="lni71YWlgwytNNIKN3gq-65" vertex="1">
          <mxGeometry x="110" y="190" width="20" height="20" as="geometry" />
        </mxCell>
        <mxCell id="lni71YWlgwytNNIKN3gq-166" value="99" style="whiteSpace=wrap;html=1;aspect=fixed;fillColor=default;fontSize=9;" parent="lni71YWlgwytNNIKN3gq-65" vertex="1">
          <mxGeometry x="110" y="110" width="20" height="20" as="geometry" />
        </mxCell>
        <mxCell id="lni71YWlgwytNNIKN3gq-183" value="61" style="whiteSpace=wrap;html=1;aspect=fixed;fillColor=default;fontSize=9;" parent="lni71YWlgwytNNIKN3gq-65" vertex="1">
          <mxGeometry x="110" y="30" width="20" height="20" as="geometry" />
        </mxCell>
        <mxCell id="lni71YWlgwytNNIKN3gq-200" value="23" style="whiteSpace=wrap;html=1;aspect=fixed;fillColor=default;fontSize=9;" parent="lni71YWlgwytNNIKN3gq-65" vertex="1">
          <mxGeometry x="110" y="-50" width="20" height="20" as="geometry" />
        </mxCell>
        <mxCell id="lni71YWlgwytNNIKN3gq-216" value="43" style="whiteSpace=wrap;html=1;aspect=fixed;fillColor=default;fontSize=9;" parent="lni71YWlgwytNNIKN3gq-65" vertex="1">
          <mxGeometry x="150" y="-10" width="20" height="20" as="geometry" />
        </mxCell>
        <mxCell id="lni71YWlgwytNNIKN3gq-217" value="45" style="whiteSpace=wrap;html=1;aspect=fixed;fillColor=default;fontSize=9;" parent="lni71YWlgwytNNIKN3gq-65" vertex="1">
          <mxGeometry x="230" y="-10" width="20" height="20" as="geometry" />
        </mxCell>
        <mxCell id="lni71YWlgwytNNIKN3gq-225" value="81" style="whiteSpace=wrap;html=1;aspect=fixed;fontSize=9;" parent="lni71YWlgwytNNIKN3gq-65" vertex="1">
          <mxGeometry x="150" y="70" width="20" height="20" as="geometry" />
        </mxCell>
        <mxCell id="lni71YWlgwytNNIKN3gq-226" value="83" style="whiteSpace=wrap;html=1;aspect=fixed;fontSize=9;" parent="lni71YWlgwytNNIKN3gq-65" vertex="1">
          <mxGeometry x="230" y="70" width="20" height="20" as="geometry" />
        </mxCell>
        <mxCell id="lni71YWlgwytNNIKN3gq-261" value="233" style="whiteSpace=wrap;html=1;aspect=fixed;fillColor=default;fontSize=9;" parent="lni71YWlgwytNNIKN3gq-65" vertex="1">
          <mxGeometry x="150" y="390" width="20" height="20" as="geometry" />
        </mxCell>
        <mxCell id="lni71YWlgwytNNIKN3gq-262" value="235" style="whiteSpace=wrap;html=1;aspect=fixed;fillColor=default;fontSize=9;" parent="lni71YWlgwytNNIKN3gq-65" vertex="1">
          <mxGeometry x="230" y="390" width="20" height="20" as="geometry" />
        </mxCell>
        <mxCell id="lni71YWlgwytNNIKN3gq-227" value="85" style="whiteSpace=wrap;html=1;aspect=fixed;fontSize=9;" parent="lni71YWlgwytNNIKN3gq-65" vertex="1">
          <mxGeometry x="310" y="70" width="20" height="20" as="geometry" />
        </mxCell>
        <mxCell id="lni71YWlgwytNNIKN3gq-215" value="41" style="whiteSpace=wrap;html=1;aspect=fixed;fillColor=default;fontSize=9;" parent="lni71YWlgwytNNIKN3gq-65" vertex="1">
          <mxGeometry x="70" y="-10" width="20" height="20" as="geometry" />
        </mxCell>
        <mxCell id="lni71YWlgwytNNIKN3gq-97" value="249" style="whiteSpace=wrap;html=1;aspect=fixed;fontSize=9;" parent="lni71YWlgwytNNIKN3gq-65" vertex="1">
          <mxGeometry x="30" y="430" width="20" height="20" as="geometry" />
        </mxCell>
        <mxCell id="lni71YWlgwytNNIKN3gq-131" value="173" style="whiteSpace=wrap;html=1;aspect=fixed;fontSize=9;" parent="lni71YWlgwytNNIKN3gq-65" vertex="1">
          <mxGeometry x="30" y="270" width="20" height="20" as="geometry" />
        </mxCell>
        <mxCell id="lni71YWlgwytNNIKN3gq-148" value="135" style="whiteSpace=wrap;html=1;aspect=fixed;fontSize=9;" parent="lni71YWlgwytNNIKN3gq-65" vertex="1">
          <mxGeometry x="30" y="190" width="20" height="20" as="geometry" />
        </mxCell>
        <mxCell id="lni71YWlgwytNNIKN3gq-182" value="59" style="whiteSpace=wrap;html=1;aspect=fixed;fontSize=9;" parent="lni71YWlgwytNNIKN3gq-65" vertex="1">
          <mxGeometry x="30" y="30" width="20" height="20" as="geometry" />
        </mxCell>
        <mxCell id="lni71YWlgwytNNIKN3gq-214" value="39" style="whiteSpace=wrap;html=1;aspect=fixed;fontSize=9;" parent="lni71YWlgwytNNIKN3gq-65" vertex="1">
          <mxGeometry x="-10" y="-10" width="20" height="20" as="geometry" />
        </mxCell>
        <mxCell id="lni71YWlgwytNNIKN3gq-232" value="115" style="whiteSpace=wrap;html=1;aspect=fixed;fontSize=9;" parent="lni71YWlgwytNNIKN3gq-65" vertex="1">
          <mxGeometry x="-10" y="150" width="20" height="20" as="geometry" />
        </mxCell>
        <mxCell id="lni71YWlgwytNNIKN3gq-259" value="229" style="whiteSpace=wrap;html=1;aspect=fixed;fillColor=default;fontSize=9;" parent="lni71YWlgwytNNIKN3gq-65" vertex="1">
          <mxGeometry x="-10" y="390" width="20" height="20" as="geometry" />
        </mxCell>
        <mxCell id="lni71YWlgwytNNIKN3gq-260" value="231" style="whiteSpace=wrap;html=1;aspect=fixed;fillColor=default;fontSize=9;" parent="lni71YWlgwytNNIKN3gq-65" vertex="1">
          <mxGeometry x="70" y="390" width="20" height="20" as="geometry" />
        </mxCell>
        <mxCell id="lni71YWlgwytNNIKN3gq-269" value="269" style="whiteSpace=wrap;html=1;aspect=fixed;fontSize=9;" parent="lni71YWlgwytNNIKN3gq-65" vertex="1">
          <mxGeometry x="70" y="470" width="20" height="20" as="geometry" />
        </mxCell>
        <mxCell id="lni71YWlgwytNNIKN3gq-313" value="95" style="whiteSpace=wrap;html=1;aspect=fixed;fontSize=9;" parent="lni71YWlgwytNNIKN3gq-65" vertex="1">
          <mxGeometry x="-50" y="110" width="20" height="20" as="geometry" />
        </mxCell>
        <mxCell id="lni71YWlgwytNNIKN3gq-314" value="57" style="whiteSpace=wrap;html=1;aspect=fixed;fontSize=9;" parent="lni71YWlgwytNNIKN3gq-65" vertex="1">
          <mxGeometry x="-50" y="30" width="20" height="20" as="geometry" />
        </mxCell>
        <mxCell id="lni71YWlgwytNNIKN3gq-315" value="19" style="whiteSpace=wrap;html=1;aspect=fixed;fontSize=9;" parent="lni71YWlgwytNNIKN3gq-65" vertex="1">
          <mxGeometry x="-50" y="-50" width="20" height="20" as="geometry" />
        </mxCell>
        <mxCell id="WUlikb5VFnGKmN1ONbDT-4" value="1100" style="whiteSpace=wrap;html=1;aspect=fixed;fillColor=default;fontSize=9;" parent="lni71YWlgwytNNIKN3gq-65" vertex="1">
          <mxGeometry x="-90" y="-50" width="20" height="20" as="geometry" />
        </mxCell>
        <mxCell id="lni71YWlgwytNNIKN3gq-115" value="213" style="whiteSpace=wrap;html=1;aspect=fixed;fillColor=default;fontSize=9;" parent="lni71YWlgwytNNIKN3gq-65" vertex="1">
          <mxGeometry x="110" y="350" width="20" height="20" as="geometry" />
        </mxCell>
      </root>
    </mxGraphModel>
  </diagram>
</mxfile>
